<svg width="51" height="51" fill="none" xmlns="http://www.w3.org/2000/svg"><g clip-path="url(#a)" fill="#718096"><path d="M22.723 25.633c.561-.788 1-1.669 1.288-2.614 1.45-.337 2.533-1.697 2.546-3.275a2.354 2.354 0 0 0 0-3.68V6.99c0-.802-.28-1.576-.788-2.179-1.093-1.297-2.925-1.504-4.261-.484l-.43.328c-.62-1.135-1.787-1.87-3.086-1.87h-3.847a.665.665 0 1 0 0 1.331h3.847c1.005 0 1.887.725 2.145 1.762a.666.666 0 0 0 1.05.368l1.129-.861c.761-.582 1.809-.46 2.435.284.307.363.475.833.475 1.321v8.562c-.135-.008-.138-.003-.822-.005-.002-.7.163-2.353-1.513-3.502a3.654 3.654 0 0 0-3.21-.448c-2.718.909-5.223.445-7.66-1.419a3.568 3.568 0 0 0-5.75 2.928v2.441c-.693.002-.688-.003-.823.005V8.463c0-2.398 1.839-4.348 4.1-4.348h1.936a.665.665 0 1 0 0-1.33H9.547c-2.994 0-5.43 2.547-5.43 5.678v7.602a2.354 2.354 0 0 0 0 3.678c.013 1.582 1.085 2.94 2.546 3.276a9.045 9.045 0 0 0 1.288 2.614 9.345 9.345 0 0 0-4.2 2.934 9.313 9.313 0 0 0-2.077 5.855V46.9c0 .726.59 1.317 1.317 1.317h16.137a.665.665 0 1 0 0-1.331H3.005V34.422c0-1.823.632-3.604 1.779-5.016a8.007 8.007 0 0 1 3.713-2.553l2.007 7.864a1.297 1.297 0 0 0 1.894.81l2.94-1.655 2.939 1.655a1.297 1.297 0 0 0 1.893-.81l2.007-7.864a8.007 8.007 0 0 1 3.713 2.553 7.978 7.978 0 0 1 1.779 5.016v12.463h-5.88a.665.665 0 1 0 0 1.33h5.894c.726 0 1.317-.59 1.317-1.316V34.422a9.313 9.313 0 0 0-2.077-5.855 9.345 9.345 0 0 0-4.2-2.934Zm1.618-4.192c.073-.626.06-1.128.062-1.18.77 0 .624.003.753-.002-.128.49-.422.91-.815 1.182Zm.744-4.564a1.028 1.028 0 0 1 0 2.053h-.682v-2.053h.682ZM7.602 13.105c0-2.08 2.18-2.965 3.61-1.87 2.775 2.122 5.767 2.668 8.891 1.623a2.285 2.285 0 0 1 2.035.283 2.12 2.12 0 0 1 .934 1.778v5.46c0 4.266-3.47 7.736-7.735 7.736-4.265 0-7.735-3.47-7.735-7.735v-7.275Zm7.735 18.672-1.41-2.44a9.085 9.085 0 0 0 2.82 0l-1.41 2.44Zm-9.066-14.9v2.053h-.682a1.028 1.028 0 0 1 0-2.053h.682Zm-.754 3.383c.122.003-.104 0 .754.001 0 .019-.017.507.063 1.183a2.059 2.059 0 0 1-.817-1.184Zm6.266 14.086-1.675-6.564a9.051 9.051 0 0 0 2.003 1.07l2.313 4.007-2.641 1.487Zm7.109 0-2.642-1.487 2.313-4.007a9.047 9.047 0 0 0 2.003-1.07l-1.674 6.564Z"/><path d="M11.484 18.397a.665.665 0 0 0 .666-.665v-.927a.665.665 0 1 0-1.331 0v.927c0 .367.298.665.665.665ZM19.19 18.397a.665.665 0 0 0 .665-.665v-.927a.665.665 0 1 0-1.33 0v.927c0 .367.297.665.665.665ZM13.52 22.542c.595.368 1.206.552 1.817.552s1.222-.184 1.817-.552a.665.665 0 1 0-.7-1.132c-.762.472-1.472.472-2.233 0a.665.665 0 1 0-.7 1.132ZM24.976 37.699a.665.665 0 0 0-.665-.666h-3.853a.665.665 0 1 0 0 1.331h3.853a.665.665 0 0 0 .665-.665ZM49.07 0h-3.032a.747.747 0 1 0 0 1.494h3.033c.24 0 .435.195.435.436v12.843c0 .24-.195.436-.435.436H32.874a.436.436 0 0 1-.436-.436v-2.156a.747.747 0 0 0-.374-.647l-.959-.554.96-.553a.747.747 0 0 0 .373-.647V1.93c0-.24.195-.436.435-.436h10.178a.747.747 0 1 0 0-1.494H32.873c-1.064 0-1.93.866-1.93 1.93v7.854l-1.705.986a.747.747 0 0 0 0 1.293l1.706.985v1.725c0 1.064.865 1.93 1.93 1.93H49.07c1.064 0 1.93-.866 1.93-1.93V1.93C51 .866 50.134 0 49.07 0Z"/><path d="M41.227 4.596a3.487 3.487 0 0 0-2.25-.819c-1.681 0-2.998 1.449-2.998 3.299 0 2.87 3.078 4.847 4.912 5.77.212.106.46.106.672 0 1.834-.923 4.912-2.9 4.912-5.77 0-1.85-1.317-3.299-2.998-3.299a3.487 3.487 0 0 0-2.25.819Zm3.754 2.48c0 1.445-1.363 2.987-3.754 4.261-2.391-1.274-3.754-2.816-3.754-4.261 0-.875.527-1.805 1.504-1.805 1.047 0 1.6.774 1.63.818a.747.747 0 0 0 1.244-.006c.005-.008.564-.812 1.627-.812.976 0 1.503.93 1.503 1.805ZM16.003 36.93a.665.665 0 1 0-1.331 0v.83a.665.665 0 1 0 1.33 0v-.83ZM16.003 40.749a.665.665 0 1 0-1.331 0v.831a.665.665 0 1 0 1.33 0v-.831ZM15.337 43.903a.665.665 0 0 0-.665.665v.832a.665.665 0 1 0 1.33 0v-.832a.666.666 0 0 0-.665-.665Z"/></g><defs><clipPath id="a"><path fill="#fff" d="M0 0h51v51H0z"/></clipPath></defs></svg>