<svg width="44" height="44" fill="none" xmlns="http://www.w3.org/2000/svg"><path d="m33.3 27.532-6.332-1.809v-1.964a7.82 7.82 0 0 0 2.547-3.93c1.758-.21 3.13-1.693 3.13-3.506v-5.64a2.456 2.456 0 0 1 1.092-2.042l2.265-1.51-1.37-1.028a9.293 9.293 0 0 0-4.184-1.744 5.856 5.856 0 0 1 2.42-1.557l2.021-.673-3.267-1.09a8.323 8.323 0 0 0-6.066.3l-.71-.355A9.36 9.36 0 0 0 20.676 0c-5.14 0-9.321 4.182-9.321 9.322v7c0 1.814 1.372 3.297 3.13 3.506a7.82 7.82 0 0 0 2.547 3.93v1.965L10.7 27.532a4.988 4.988 0 0 0-3.603 4.776V44h29.806V32.308a4.988 4.988 0 0 0-3.603-4.776Zm-3.523-9.202c.014-.195.03-.39.03-.588v-3.418a2.126 2.126 0 0 1 1.419 1.999c0 .934-.61 1.722-1.45 2.007Zm-9.1-16.91c1.22 0 2.442.288 3.534.834l1.337.668.318-.159a6.899 6.899 0 0 1 4.89-.502 7.265 7.265 0 0 0-2.075 2.051l-.911 1.365h1.327c1.58 0 3.146.492 4.444 1.39l-.59.393a3.879 3.879 0 0 0-1.725 3.222v2.82a3.513 3.513 0 0 0-1.42-.656V9.392l-1.52.912a20.1 20.1 0 0 1-5.124 2.178 6.76 6.76 0 0 0 .257-1.837V9.392l-1.075.645a14.234 14.234 0 0 1-6.731 2.015v-1.407h-1.42v2.2a3.523 3.523 0 0 0-1.419.657v-4.18c0-4.358 3.545-7.903 7.902-7.903Zm-7.903 14.903c0-.924.596-1.705 1.42-1.999v3.418c0 .199.014.393.03.588a2.125 2.125 0 0 1-1.45-2.007Zm2.839 1.419v-4.27a15.663 15.663 0 0 0 6.23-1.553c-.093.379-.228.748-.403 1.097l-.724 1.448 1.423-.285a21.551 21.551 0 0 0 6.248-2.295v5.858A6.395 6.395 0 0 1 22 24.129a6.395 6.395 0 0 1-6.387-6.387ZM22 25.548a7.755 7.755 0 0 0 3.548-.861v1.467c-.121.369-.866 2.233-3.548 2.233-2.674 0-3.42-1.846-3.549-2.234v-1.466a7.755 7.755 0 0 0 3.549.861Zm-10.91 3.35 6.223-1.78c.581 1.183 2.007 2.688 4.687 2.688s4.105-1.506 4.686-2.688l6.224 1.78a3.562 3.562 0 0 1 2.574 3.41v4.595h-3.549v-4.258h-1.419v9.936H13.484v-9.936h-1.42v4.258H8.516v-4.595a3.562 3.562 0 0 1 2.573-3.41Zm-2.574 9.425h3.548v4.258H8.516v-4.258Zm23.42 4.258v-4.258h3.548v4.258h-3.549Z" fill="#718096"/><path d="M18.451 16.323a.71.71 0 1 0 0-1.42.71.71 0 0 0 0 1.42ZM25.549 16.323a.71.71 0 1 0 0-1.42.71.71 0 0 0 0 1.42ZM22 22a2.842 2.842 0 0 0 2.839-2.839h-1.42a1.42 1.42 0 0 1-1.42 1.42 1.42 1.42 0 0 1-1.418-1.42h-1.42A2.842 2.842 0 0 0 22 22.001ZM15.613 37.613h1.42v-4.968h-2.13v1.42h.71v3.548ZM19.161 37.613h1.42v-4.968h-2.13v1.42h.71v3.548Z" fill="#718096"/></svg>