<svg width="38" height="38" fill="none" xmlns="http://www.w3.org/2000/svg"><g clip-path="url(#a)"><path d="M36.887 8.943H26.82V6.731a4.5 4.5 0 0 0-4.495-4.495h-6.652A4.5 4.5 0 0 0 11.18 6.73v2.212H1.113C.498 8.943 0 9.442 0 10.057V30.28a5.49 5.49 0 0 0 5.483 5.483h27.034A5.49 5.49 0 0 0 38 30.281V10.057c0-.615-.498-1.114-1.113-1.114ZM21.526 23.472A2.529 2.529 0 0 1 19 25.998a2.529 2.529 0 0 1-2.526-2.526v-2.526h5.052v2.526Zm1.113-4.753h-7.278c-.615 0-1.114.498-1.114 1.113v2.023C7.773 20.45 2.92 16.25 2.296 11.17h33.408c-.624 5.08-5.477 9.28-11.951 10.685v-2.023c0-.614-.499-1.113-1.114-1.113ZM13.406 6.731a2.271 2.271 0 0 1 2.268-2.269h6.652a2.271 2.271 0 0 1 2.268 2.269v2.212H13.406V6.731Zm22.367 23.55a3.26 3.26 0 0 1-3.256 3.257H5.483a3.26 3.26 0 0 1-3.256-3.257v-13.37c.898 1.285 2.057 2.472 3.457 3.522 2.426 1.82 5.388 3.083 8.611 3.706A4.76 4.76 0 0 0 19 28.224a4.76 4.76 0 0 0 4.705-4.085c3.223-.623 6.185-1.886 8.61-3.706 1.4-1.05 2.56-2.237 3.458-3.522v13.37Z" fill="#718096"/></g><defs><clipPath id="a"><path fill="#fff" d="M0 0h38v38H0z"/></clipPath></defs></svg>