<?xml version="1.0" encoding="utf-8"?>
<!-- Generator: Adobe Illustrator 26.2.1, SVG Export Plug-In . SVG Version: 6.00 Build 0)  -->
<svg version="1.1" id="Layer_1" xmlns="http://www.w3.org/2000/svg" xmlns:xlink="http://www.w3.org/1999/xlink" x="0px" y="0px"
	 viewBox="0 0 77.86 76.52" style="enable-background:new 0 0 77.86 76.52;" xml:space="preserve">
<style type="text/css">
	.st0{clip-path:url(#SVGID_00000058581882666712358030000010677587361969324692_);}
	.st1{clip-path:url(#SVGID_00000152975987907006821070000002752612005124927129_);fill:#7500C0;}
	.st2{fill:#FFFFFF;}
</style>
<g>
	<defs>
		<path id="SVGID_1_" d="M41.34,53.97V40.52h11.03c1.23,0,2.22-0.98,2.22-2.19v-4.6h9c0.04,0,0.1,0,0.17,0
			c0.74,0,2.74-0.14,4.3-1.59c0.83-0.77,1.82-2.18,1.82-4.57V20.2c4.3-1.06,7.49-4.89,7.49-9.45c0-5.38-4.44-9.75-9.9-9.75
			c-5.46,0-9.9,4.37-9.9,9.75c0,4.69,3.38,8.62,7.87,9.55v7.28c0,0.65-0.14,1.11-0.41,1.37c-0.37,0.36-1.08,0.42-1.25,0.41
			c-0.05,0-0.09-0.01-0.14-0.01H54.6v-3.5c0-1.21-0.99-2.19-2.22-2.19H25.87c-1.23,0-2.22,0.98-2.22,2.19v4.26h-9.39
			c-0.54-0.02-2.77,0.01-4.47,1.58c-0.83,0.77-1.82,2.18-1.82,4.57v7.38c-4.29,1.08-7.48,4.9-7.48,9.46c0,5.38,4.44,9.75,9.9,9.75
			s9.9-4.37,9.9-9.75c0-4.69-3.38-8.62-7.87-9.54v-7.28c0-0.65,0.14-1.11,0.4-1.37c0.38-0.36,1.08-0.43,1.26-0.41
			c0.05,0,0.1,0,0.14,0h9.43v3.84c0,1.21,1,2.19,2.22,2.19H36.9V53.9c-0.05,0.83-0.18,4.94,2.54,7.85c1.44,1.54,3.36,2.43,5.71,2.64
			c0.96,3.63,4.31,6.32,8.29,6.32h11.94c4.73,0,8.58-3.79,8.58-8.45s-3.85-8.45-8.58-8.45H53.43c-3.93,0-7.24,2.62-8.25,6.19
			c-1.05-0.16-1.86-0.55-2.46-1.19c-1.32-1.4-1.45-3.83-1.39-4.63C41.33,54.09,41.34,54.03,41.34,53.97z M62,10.75
			c0-2.96,2.45-5.38,5.46-5.38c3.01,0,5.46,2.41,5.46,5.38s-2.45,5.38-5.46,5.38C64.45,16.13,62,13.72,62,10.75z M15.84,53.1
			c0,2.97-2.45,5.38-5.46,5.38s-5.46-2.41-5.46-5.38s2.45-5.38,5.46-5.38C13.4,47.72,15.84,50.14,15.84,53.1z M28.09,36.15h22.05
			v-8.1H28.09V36.15z M53.43,58.17h11.94c2.28,0,4.14,1.83,4.14,4.08s-1.86,4.08-4.14,4.08H53.43c-2.28,0-4.14-1.83-4.14-4.08
			S51.15,58.17,53.43,58.17z"/>
	</defs>
	<clipPath id="SVGID_00000109728112821528497550000015008613721638752418_">
		<use xlink:href="#SVGID_1_"  style="overflow:visible;"/>
	</clipPath>
	<g style="clip-path:url(#SVGID_00000109728112821528497550000015008613721638752418_);">
		<g>
			<defs>
				<rect id="SVGID_00000060011924130008904470000012469525015464110226_" x="-889.06" y="-606.9" width="1280" height="1069"/>
			</defs>
			<clipPath id="SVGID_00000079473437486833903360000002375831734219819649_">
				<use xlink:href="#SVGID_00000060011924130008904470000012469525015464110226_"  style="overflow:visible;"/>
			</clipPath>
			
				<rect x="-0.51" style="clip-path:url(#SVGID_00000079473437486833903360000002375831734219819649_);fill:#7500C0;" width="78.86" height="71.7"/>
		</g>
	</g>
</g>
<rect x="28.09" y="28.05" class="st2" width="22.05" height="7.8"/>
</svg>
