<?xml version="1.0" encoding="utf-8"?>
<!-- Generator: Adobe Illustrator 26.2.1, SVG Export Plug-In . SVG Version: 6.00 Build 0)  -->
<svg version="1.1" id="Layer_1" xmlns="http://www.w3.org/2000/svg" xmlns:xlink="http://www.w3.org/1999/xlink" x="0px" y="0px"
	 viewBox="0 0 130.08 129.71" style="enable-background:new 0 0 130.08 129.71;" xml:space="preserve">
<style type="text/css">
	.st0{clip-path:url(#SVGID_00000112620924090830652560000016090652212272651910_);}
	.st1{clip-path:url(#SVGID_00000031913721310896604350000016010151657188545193_);fill:#7500C0;}
	.st2{clip-path:url(#SVGID_00000183972008295424832560000012417892149954958260_);}
	.st3{clip-path:url(#SVGID_00000100360026763120355450000009943761577798692502_);fill:#7500C0;}
	.st4{clip-path:url(#SVGID_00000166661799590486619010000016644897447746070703_);}
	.st5{clip-path:url(#SVGID_00000072253394109610701260000009162463145526425476_);fill:#7500C0;}
	.st6{clip-path:url(#SVGID_00000173876008533469180450000014008407220746126525_);}
	.st7{clip-path:url(#SVGID_00000038387973976714982930000017352630852445764241_);fill:#7500C0;}
	.st8{clip-path:url(#SVGID_00000095313149585895789420000001984332358437460147_);}
	.st9{clip-path:url(#SVGID_00000104666286562443483020000000432658957834595722_);fill:#7500C0;}
	.st10{clip-path:url(#SVGID_00000163036964931383884790000001831425548450226572_);}
	.st11{clip-path:url(#SVGID_00000041266445355158892060000017430254146961976471_);fill:#7500C0;}
	.st12{clip-path:url(#SVGID_00000078761181866269472690000000661309172777115797_);}
	.st13{clip-path:url(#SVGID_00000116923928365591420830000015145877072531249830_);fill:#7500C0;}
	.st14{clip-path:url(#SVGID_00000063632138280303411680000002740005954557568936_);}
	.st15{clip-path:url(#SVGID_00000183965731515983432460000015044978679982351240_);fill:#7500C0;}
	.st16{clip-path:url(#SVGID_00000173136063018887259830000015106606345546550942_);}
	.st17{clip-path:url(#SVGID_00000091737022065159022310000014914160243304209562_);fill:#7500C0;}
	.st18{clip-path:url(#SVGID_00000091703995720958843130000004194986484164576901_);}
	.st19{clip-path:url(#SVGID_00000181048805755528720200000008038028915113605798_);fill:#7500C0;}
	.st20{clip-path:url(#SVGID_00000159466269273327683720000014507131400613514929_);}
	.st21{clip-path:url(#SVGID_00000099643778918559469740000003958787856298288800_);fill:#7500C0;}
	.st22{clip-path:url(#SVGID_00000001623911566937333140000011874781230388381327_);}
	.st23{clip-path:url(#SVGID_00000011032486147392791780000012179950890056658104_);fill:#7500C0;}
	.st24{clip-path:url(#SVGID_00000132066402913693445290000015763450817401467833_);}
	.st25{clip-path:url(#SVGID_00000060021820237145907330000005827790148217317823_);fill:#7500C0;}
	.st26{clip-path:url(#SVGID_00000013179951919713413580000015903150360325856646_);}
	.st27{clip-path:url(#SVGID_00000152227831546311155520000012136029256103349946_);fill:#7500C0;}
	.st28{clip-path:url(#SVGID_00000026865770327427063090000014195525195751901871_);}
	.st29{clip-path:url(#SVGID_00000122711563627536968370000003129115368641726894_);fill:#7500C0;}
	.st30{clip-path:url(#SVGID_00000178908777533427559460000004357420300989744795_);}
	.st31{clip-path:url(#SVGID_00000086649948042886386510000014379870525446274455_);fill:#7500C0;}
	.st32{clip-path:url(#SVGID_00000125595842626717972010000016161330444738740916_);}
	.st33{clip-path:url(#SVGID_00000058582846514735659240000006736518694953460671_);fill:#7500C0;}
	.st34{clip-path:url(#SVGID_00000034801755200416176640000001346004356300229250_);}
	.st35{clip-path:url(#SVGID_00000069365900590703028160000006940089888837708969_);fill:#7500C0;}
	.st36{clip-path:url(#SVGID_00000131369879807112653060000000921927168026208913_);}
	.st37{clip-path:url(#SVGID_00000134221908465834170820000007548981160163656881_);fill:#7500C0;}
	.st38{clip-path:url(#SVGID_00000183964658021224176640000012619912494784257924_);}
	.st39{clip-path:url(#SVGID_00000069399018227230812210000006102634794222016932_);fill:#7500C0;}
	.st40{clip-path:url(#SVGID_00000150806743658051476970000005870676409290036411_);}
	.st41{clip-path:url(#SVGID_00000105416110777521700640000003377313225702865834_);fill:#7500C0;}
	.st42{clip-path:url(#SVGID_00000017500516451674491850000005426357793070131116_);}
	.st43{clip-path:url(#SVGID_00000178902352457681847900000016874173500900300988_);fill:#7500C0;}
	.st44{clip-path:url(#SVGID_00000051379182579205880760000012527790646200207789_);}
	.st45{clip-path:url(#SVGID_00000096041074927788350340000016322417039976868006_);fill:#7500C0;}
</style>
<g>
	<g>
		<defs>
			<path id="SVGID_1_" d="M-114.28,94.92V31.68c0-1.19-0.94-2.15-2.1-2.15c-1.16,0-2.1,0.96-2.1,2.15v65.39
				c0,1.19,0.94,2.15,2.1,2.15h64.78v-4.31L-114.28,94.92z"/>
		</defs>
		<clipPath id="SVGID_00000109717644304659642140000014396962075631411856_">
			<use xlink:href="#SVGID_1_"  style="overflow:visible;"/>
		</clipPath>
		<g style="clip-path:url(#SVGID_00000109717644304659642140000014396962075631411856_);">
			<defs>
				<rect id="SVGID_00000121259171485177310960000009387452354506329230_" x="-250.39" y="-573.4" width="1280" height="1071"/>
			</defs>
			<clipPath id="SVGID_00000156584027193243466170000006213386852394527405_">
				<use xlink:href="#SVGID_00000121259171485177310960000009387452354506329230_"  style="overflow:visible;"/>
			</clipPath>
		</g>
	</g>
	<g>
		<defs>
			<path id="SVGID_00000075859718572901948570000012095378324525747369_" d="M-104,89.01c1.16,0,2.1-0.96,2.1-2.15V66.39
				c0-1.19-0.94-2.15-2.1-2.15c-1.16,0-2.1,0.96-2.1,2.15v20.47C-106.1,88.05-105.16,89.01-104,89.01"/>
		</defs>
		<clipPath id="SVGID_00000101093754701675840310000008493570102744692627_">
			<use xlink:href="#SVGID_00000075859718572901948570000012095378324525747369_"  style="overflow:visible;"/>
		</clipPath>
		<g style="clip-path:url(#SVGID_00000101093754701675840310000008493570102744692627_);">
			<defs>
				<rect id="SVGID_00000169547111358338379180000016101190993929459595_" x="-250.39" y="-573.4" width="1280" height="1071"/>
			</defs>
			<clipPath id="SVGID_00000152235059614374365510000002129975498599302304_">
				<use xlink:href="#SVGID_00000169547111358338379180000016101190993929459595_"  style="overflow:visible;"/>
			</clipPath>
		</g>
	</g>
	<g>
		<defs>
			<path id="SVGID_00000181765434295175428620000007736968799491882425_" d="M-93.33,89.01c1.16,0,2.1-0.96,2.1-2.15V62.38
				c0-1.19-0.94-2.15-2.1-2.15c-1.16,0-2.1,0.96-2.1,2.15v24.48C-95.43,88.05-94.49,89.01-93.33,89.01"/>
		</defs>
		<clipPath id="SVGID_00000098190940583434627430000012981872143776093115_">
			<use xlink:href="#SVGID_00000181765434295175428620000007736968799491882425_"  style="overflow:visible;"/>
		</clipPath>
		<g style="clip-path:url(#SVGID_00000098190940583434627430000012981872143776093115_);">
			<defs>
				<rect id="SVGID_00000028321270559993480770000014308005159341397665_" x="-250.39" y="-573.4" width="1280" height="1071"/>
			</defs>
			<clipPath id="SVGID_00000062181211245830496930000005017872559828047498_">
				<use xlink:href="#SVGID_00000028321270559993480770000014308005159341397665_"  style="overflow:visible;"/>
			</clipPath>
		</g>
	</g>
	<g>
		<defs>
			<path id="SVGID_00000046297798128212263940000005441921152692046218_" d="M-71.99,89.01c1.16,0,2.1-0.96,2.1-2.15V64.93
				c0-1.19-0.94-2.15-2.1-2.15c-1.16,0-2.1,0.96-2.1,2.15v21.93C-74.1,88.05-73.15,89.01-71.99,89.01"/>
		</defs>
		<clipPath id="SVGID_00000177458573039906158820000004231045470874015362_">
			<use xlink:href="#SVGID_00000046297798128212263940000005441921152692046218_"  style="overflow:visible;"/>
		</clipPath>
		<g style="clip-path:url(#SVGID_00000177458573039906158820000004231045470874015362_);">
			<defs>
				<rect id="SVGID_00000136374771002524510390000008708376050146913680_" x="-250.39" y="-573.4" width="1280" height="1071"/>
			</defs>
			<clipPath id="SVGID_00000085943201747037047100000003317795175117381564_">
				<use xlink:href="#SVGID_00000136374771002524510390000008708376050146913680_"  style="overflow:visible;"/>
			</clipPath>
		</g>
	</g>
	<g>
		<defs>
			<path id="SVGID_00000155144253012787179680000016129337181005024941_" d="M-82.66,89.01c1.16,0,2.1-0.96,2.1-2.15V60.44
				c0-1.19-0.94-2.15-2.1-2.15c-1.16,0-2.1,0.96-2.1,2.15v26.42C-84.76,88.05-83.82,89.01-82.66,89.01"/>
		</defs>
		<clipPath id="SVGID_00000026151694851792448860000018250004617816629951_">
			<use xlink:href="#SVGID_00000155144253012787179680000016129337181005024941_"  style="overflow:visible;"/>
		</clipPath>
		<g style="clip-path:url(#SVGID_00000026151694851792448860000018250004617816629951_);">
			<defs>
				<rect id="SVGID_00000010284339337402722880000014299361146617421485_" x="-250.39" y="-573.4" width="1280" height="1071"/>
			</defs>
			<clipPath id="SVGID_00000097471585480836105200000008743146151613963433_">
				<use xlink:href="#SVGID_00000010284339337402722880000014299361146617421485_"  style="overflow:visible;"/>
			</clipPath>
		</g>
	</g>
	<g>
		<defs>
			<path id="SVGID_00000181795260727022851710000010682414127298508195_" d="M-61.33,89.01c1.16,0,2.1-0.96,2.1-2.15V69.41
				c0-1.19-0.94-2.15-2.1-2.15s-2.1,0.96-2.1,2.15v17.45C-63.43,88.05-62.49,89.01-61.33,89.01"/>
		</defs>
		<clipPath id="SVGID_00000054982146873992113970000001922617141112043165_">
			<use xlink:href="#SVGID_00000181795260727022851710000010682414127298508195_"  style="overflow:visible;"/>
		</clipPath>
		<g style="clip-path:url(#SVGID_00000054982146873992113970000001922617141112043165_);">
			<defs>
				<rect id="SVGID_00000065075734656516929710000000677321481276478890_" x="-250.39" y="-573.4" width="1280" height="1071"/>
			</defs>
			<clipPath id="SVGID_00000067217372344506736480000014632396172499947428_">
				<use xlink:href="#SVGID_00000065075734656516929710000000677321481276478890_"  style="overflow:visible;"/>
			</clipPath>
		</g>
	</g>
	<g>
		<defs>
			<path id="SVGID_00000061470510561745135760000012705739080856491167_" d="M-93.33,57.7c1.16,0,2.1-0.96,2.1-2.15V42.88
				c0-1.19-0.94-2.15-2.1-2.15c-1.16,0-2.1,0.96-2.1,2.15v12.67C-95.43,56.74-94.49,57.7-93.33,57.7"/>
		</defs>
		<clipPath id="SVGID_00000082363265574292920520000013287902712899445394_">
			<use xlink:href="#SVGID_00000061470510561745135760000012705739080856491167_"  style="overflow:visible;"/>
		</clipPath>
		<g style="clip-path:url(#SVGID_00000082363265574292920520000013287902712899445394_);">
			<defs>
				<rect id="SVGID_00000150072603668720852630000012025864716559202947_" x="-250.39" y="-573.4" width="1280" height="1071"/>
			</defs>
			<clipPath id="SVGID_00000125560517754363677570000012418320427155269043_">
				<use xlink:href="#SVGID_00000150072603668720852630000012025864716559202947_"  style="overflow:visible;"/>
			</clipPath>
		</g>
	</g>
	<g>
		<defs>
			<path id="SVGID_00000153703710452384732210000010690280037596097692_" d="M-104,61.66c1.16,0,2.1-0.96,2.1-2.15v-14.9
				c0-1.19-0.94-2.15-2.1-2.15c-1.16,0-2.1,0.96-2.1,2.15v14.9C-106.1,60.69-105.16,61.66-104,61.66"/>
		</defs>
		<clipPath id="SVGID_00000116208168548686887060000017234573703429564087_">
			<use xlink:href="#SVGID_00000153703710452384732210000010690280037596097692_"  style="overflow:visible;"/>
		</clipPath>
		<g style="clip-path:url(#SVGID_00000116208168548686887060000017234573703429564087_);">
			<defs>
				<rect id="SVGID_00000094611684610465459300000005941226695036648605_" x="-250.39" y="-573.4" width="1280" height="1071"/>
			</defs>
			<clipPath id="SVGID_00000114777157839818638240000012896237567887963287_">
				<use xlink:href="#SVGID_00000094611684610465459300000005941226695036648605_"  style="overflow:visible;"/>
			</clipPath>
		</g>
	</g>
	<g>
		<defs>
			<path id="SVGID_00000078005614756929806460000013785180965584403345_" d="M-71.99,60.27c1.16,0,2.1-0.96,2.1-2.15v-5.94
				c0-1.19-0.94-2.15-2.1-2.15c-1.16,0-2.1,0.96-2.1,2.15v5.94C-74.1,59.31-73.15,60.27-71.99,60.27"/>
		</defs>
		<clipPath id="SVGID_00000034058759692845373940000016497686515091787929_">
			<use xlink:href="#SVGID_00000078005614756929806460000013785180965584403345_"  style="overflow:visible;"/>
		</clipPath>
		<g style="clip-path:url(#SVGID_00000034058759692845373940000016497686515091787929_);">
			<defs>
				<rect id="SVGID_00000037660609951162849410000012828026086943384227_" x="-250.39" y="-573.4" width="1280" height="1071"/>
			</defs>
			<clipPath id="SVGID_00000155114319090943966390000009144444131397562765_">
				<use xlink:href="#SVGID_00000037660609951162849410000012828026086943384227_"  style="overflow:visible;"/>
			</clipPath>
		</g>
	</g>
	<g>
		<defs>
			<path id="SVGID_00000069397802800778209370000008315726813122559139_" d="M-61.33,64.48c1.16,0,2.1-0.96,2.1-2.15v-3.39
				c0-1.19-0.94-2.15-2.1-2.15s-2.1,0.96-2.1,2.15v3.39C-63.43,63.52-62.49,64.48-61.33,64.48"/>
		</defs>
		<clipPath id="SVGID_00000161604662284217512730000012196083811084660917_">
			<use xlink:href="#SVGID_00000069397802800778209370000008315726813122559139_"  style="overflow:visible;"/>
		</clipPath>
		<g style="clip-path:url(#SVGID_00000161604662284217512730000012196083811084660917_);">
			<defs>
				<rect id="SVGID_00000033355207360132050860000012447866667995553172_" x="-250.39" y="-573.4" width="1280" height="1071"/>
			</defs>
			<clipPath id="SVGID_00000035528891857727730790000009430535780714324913_">
				<use xlink:href="#SVGID_00000033355207360132050860000012447866667995553172_"  style="overflow:visible;"/>
			</clipPath>
		</g>
	</g>
	<g>
		<defs>
			<path id="SVGID_00000016777327342507912570000015895174942164334263_" d="M-82.66,55.79c1.16,0,2.1-0.96,2.1-2.15V33.65
				c0-1.19-0.94-2.15-2.1-2.15c-1.16,0-2.1,0.97-2.1,2.15v19.98C-84.76,54.82-83.82,55.79-82.66,55.79"/>
		</defs>
		<clipPath id="SVGID_00000136405796718845120820000014161846863884601744_">
			<use xlink:href="#SVGID_00000016777327342507912570000015895174942164334263_"  style="overflow:visible;"/>
		</clipPath>
		<g style="clip-path:url(#SVGID_00000136405796718845120820000014161846863884601744_);">
			<defs>
				<rect id="SVGID_00000106123259892944282180000004356452923278837379_" x="-250.39" y="-573.4" width="1280" height="1071"/>
			</defs>
			<clipPath id="SVGID_00000006680005385739426090000010486692120547537794_">
				<use xlink:href="#SVGID_00000106123259892944282180000004356452923278837379_"  style="overflow:visible;"/>
			</clipPath>
		</g>
	</g>
</g>
<g>
	<g>
		<defs>
			<path id="SVGID_00000062166908913791364770000013535781575302277550_" d="M89.91,32.41H34.46c-3.69,0-6.71,3.06-6.71,6.79v56.11
				c0,3.74,3.02,6.79,6.71,6.79h55.45c3.69,0,6.71-3.06,6.71-6.79V39.2C96.62,35.46,93.6,32.41,89.91,32.41z M92.77,95.31
				c0,1.59-1.28,2.89-2.86,2.89H34.46c-1.58,0-2.86-1.3-2.86-2.89V39.2c0-1.6,1.28-2.89,2.86-2.89h55.45c1.58,0,2.86,1.3,2.86,2.89
				V95.31z"/>
		</defs>
		<clipPath id="SVGID_00000109723833385253451760000005134614449782741632_">
			<use xlink:href="#SVGID_00000062166908913791364770000013535781575302277550_"  style="overflow:visible;"/>
		</clipPath>
		<g style="clip-path:url(#SVGID_00000109723833385253451760000005134614449782741632_);">
			<defs>
				<rect id="SVGID_00000001654807467472453730000007301393037655267768_" x="-287.83" y="-571.51" width="1280" height="1071"/>
			</defs>
			<clipPath id="SVGID_00000157288301153926370170000013524165065528390579_">
				<use xlink:href="#SVGID_00000001654807467472453730000007301393037655267768_"  style="overflow:visible;"/>
			</clipPath>
			
				<rect x="26.75" y="31.41" style="clip-path:url(#SVGID_00000157288301153926370170000013524165065528390579_);fill:#7500C0;" width="70.88" height="71.7"/>
		</g>
	</g>
	<g>
		<defs>
			<path id="SVGID_00000114072753580604376300000000268036490229416857_" d="M85.57,60.55c-2.9,0-5.28,2.39-5.29,5.32
				c-0.01,1.02,0.28,1.98,0.79,2.83l-2.48,3.09c-0.55-0.2-1.14-0.33-1.76-0.33c-2.19,0-4.08,1.36-4.88,3.28l-9.6-0.57
				c-0.64-2.23-2.65-3.87-5.06-3.87c-2.92,0-5.29,2.4-5.29,5.36c0,0.62,0.13,1.2,0.32,1.75l-8.83,7.16
				c-0.81-0.51-1.76-0.82-2.78-0.82c-2.92,0-5.29,2.4-5.29,5.36c0,2.96,2.37,5.36,5.29,5.36c2.92,0,5.29-2.41,5.29-5.36
				c0-0.62-0.12-1.2-0.31-1.75l8.83-7.16c0.81,0.51,1.76,0.82,2.78,0.82c2.19,0,4.08-1.36,4.88-3.29l9.6,0.57
				c0.64,2.23,2.65,3.87,5.06,3.87c2.92,0,5.29-2.4,5.29-5.36c0-1.02-0.3-1.97-0.79-2.79l2.48-3.09c0.55,0.2,1.13,0.32,1.73,0.33
				h0.04c2.9,0,5.28-2.39,5.29-5.32c0.01-1.43-0.53-2.78-1.52-3.8C88.35,61.13,87.02,60.56,85.57,60.55 M40.69,90.91
				c-0.98,0-1.77-0.8-1.77-1.79c0-0.99,0.79-1.79,1.77-1.79c0.98,0,1.77,0.8,1.77,1.79C42.46,90.11,41.67,90.91,40.69,90.91
				 M57.28,77.46c-0.98,0-1.77-0.8-1.77-1.79c0-0.99,0.79-1.79,1.77-1.79c0.98,0,1.77,0.8,1.77,1.79
				C59.05,76.66,58.25,77.46,57.28,77.46 M76.82,78.62c-0.98,0-1.77-0.8-1.77-1.79s0.79-1.79,1.77-1.79c0.98,0,1.77,0.8,1.77,1.79
				S77.8,78.62,76.82,78.62 M85.57,67.71v1.78l-0.01-1.78c-0.47,0-0.92-0.19-1.25-0.53c-0.33-0.34-0.51-0.79-0.51-1.27
				c0.01-0.98,0.8-1.78,1.78-1.78c0.47,0,0.92,0.19,1.25,0.53c0.33,0.34,0.51,0.79,0.51,1.27C87.34,66.91,86.54,67.71,85.57,67.71"
				/>
		</defs>
		<clipPath id="SVGID_00000044891748671098812540000005070070790991931802_">
			<use xlink:href="#SVGID_00000114072753580604376300000000268036490229416857_"  style="overflow:visible;"/>
		</clipPath>
		<g style="clip-path:url(#SVGID_00000044891748671098812540000005070070790991931802_);">
			<defs>
				<rect id="SVGID_00000044880498418447068280000010296848393937198730_" x="-287.83" y="-571.51" width="1280" height="1071"/>
			</defs>
			<clipPath id="SVGID_00000010311417397210429570000011552787219988089785_">
				<use xlink:href="#SVGID_00000044880498418447068280000010296848393937198730_"  style="overflow:visible;"/>
			</clipPath>
			
				<rect x="34.39" y="59.55" style="clip-path:url(#SVGID_00000010311417397210429570000011552787219988089785_);fill:#7500C0;" width="57.48" height="35.93"/>
		</g>
	</g>
	<g>
		<defs>
			<path id="SVGID_00000082352729834921244460000015824838292868652418_" d="M85.57,39.62c-2.92,0-5.29,2.4-5.29,5.36
				c0,0.88,0.23,1.71,0.61,2.44l-5.37,5.79c-0.59-0.23-1.23-0.37-1.9-0.37c-2.78,0-5.04,2.19-5.25,4.95l-9.46,0.79
				c-0.82-1.87-2.68-3.19-4.83-3.19c-2.92,0-5.29,2.4-5.29,5.36c0,0.89,0.23,1.71,0.61,2.45l-7.61,7.6c-0.67-0.32-1.42-0.5-2.21-0.5
				c-2.92,0-5.29,2.4-5.29,5.36c0,2.96,2.37,5.36,5.29,5.36c2.92,0,5.29-2.4,5.29-5.36c0-0.85-0.22-1.65-0.56-2.36l7.65-7.64
				c0.65,0.29,1.37,0.46,2.12,0.46c2.44,0,4.48-1.69,5.09-3.97L69.3,61.3c0.96,1.37,2.53,2.27,4.31,2.27c2.92,0,5.29-2.41,5.29-5.36
				c0-0.97-0.28-1.87-0.72-2.66l5.26-5.67c0.65,0.29,1.37,0.46,2.13,0.46c2.92,0,5.29-2.41,5.29-5.36
				C90.86,42.03,88.49,39.62,85.57,39.62 M39.57,77.46c-0.98,0-1.77-0.8-1.77-1.79s0.79-1.79,1.77-1.79c0.98,0,1.77,0.8,1.77,1.79
				S40.54,77.46,39.57,77.46 M54.06,62.55c-0.98,0-1.77-0.8-1.77-1.79s0.79-1.79,1.77-1.79c0.98,0,1.77,0.8,1.77,1.79
				S55.04,62.55,54.06,62.55 M73.61,60c-0.98,0-1.77-0.8-1.77-1.79c0-0.99,0.79-1.79,1.77-1.79c0.98,0,1.77,0.8,1.77,1.79
				C75.38,59.2,74.59,60,73.61,60 M85.57,46.78c-0.98,0-1.77-0.8-1.77-1.79c0-0.99,0.79-1.79,1.77-1.79c0.98,0,1.77,0.8,1.77,1.79
				C87.34,45.97,86.55,46.78,85.57,46.78"/>
		</defs>
		<clipPath id="SVGID_00000045585203335720805130000003917302106551432633_">
			<use xlink:href="#SVGID_00000082352729834921244460000015824838292868652418_"  style="overflow:visible;"/>
		</clipPath>
		<g style="clip-path:url(#SVGID_00000045585203335720805130000003917302106551432633_);">
			<defs>
				<rect id="SVGID_00000070830930010287599940000002906162423333385385_" x="-287.83" y="-571.51" width="1280" height="1071"/>
			</defs>
			<clipPath id="SVGID_00000152978975270101254790000002521701488530465192_">
				<use xlink:href="#SVGID_00000070830930010287599940000002906162423333385385_"  style="overflow:visible;"/>
			</clipPath>
			
				<rect x="33.27" y="38.62" style="clip-path:url(#SVGID_00000152978975270101254790000002521701488530465192_);fill:#7500C0;" width="58.59" height="43.4"/>
		</g>
	</g>
</g>
<g>
	<g>
		<defs>
			<path id="SVGID_00000103251104985212742440000013392569545182364326_" d="M190.79,102.78c-0.06,0-0.12,0-0.17-0.01l-0.31-0.03
				c-0.41-0.04-0.78-0.24-1.03-0.55c-0.25-0.31-0.37-0.71-0.33-1.1c1.54-13.06,8.92-21.57,14.83-26.4
				c6.27-5.12,12.34-7.33,12.6-7.42c0.39-0.14,0.81-0.12,1.19,0.05c0.37,0.17,0.66,0.47,0.8,0.85l0.1,0.28
				c0.28,0.77-0.13,1.62-0.92,1.9c-0.23,0.08-5.74,2.08-11.59,6.86c-5.44,4.45-12.22,12.26-13.64,24.25
				C192.23,102.22,191.56,102.78,190.79,102.78"/>
		</defs>
		<clipPath id="SVGID_00000136412832202865566810000005579722550142434730_">
			<use xlink:href="#SVGID_00000103251104985212742440000013392569545182364326_"  style="overflow:visible;"/>
		</clipPath>
		<g style="clip-path:url(#SVGID_00000136412832202865566810000005579722550142434730_);">
			<defs>
				<rect id="SVGID_00000103972723098180171740000011445361822523982735_" x="-322.06" y="-570.83" width="1280" height="1071"/>
			</defs>
			<clipPath id="SVGID_00000180342754931356449020000005118077338665075080_">
				<use xlink:href="#SVGID_00000103972723098180171740000011445361822523982735_"  style="overflow:visible;"/>
			</clipPath>
		</g>
	</g>
	<g>
		<g>
			<defs>
				<path id="SVGID_00000060723431160173034240000015665845829385080729_" d="M209.37,96.5c-5.26,0-10.99-0.92-17.07-2.77
					c-0.41-0.12-0.74-0.41-0.93-0.78c-0.29-0.59-7.01-14.6-0.07-27.09c4.43-7.98,11.88-11.46,19.09-14.83
					c5.94-2.78,11.56-5.4,15.29-10.38c2.2-2.94,2.46-8.07,2.47-8.12c0.03-0.6,0.42-1.12,1-1.33c0.58-0.21,1.23-0.06,1.65,0.37
					c0.65,0.67,15.9,16.62,9.87,40.96c-2.25,9.09-7.32,16.03-14.67,20.06C221.24,95.19,215.64,96.5,209.37,96.5 M193.89,91.08
					c12.19,3.59,22.75,3.21,30.58-1.09c6.59-3.62,11.15-9.9,13.2-18.16c4.27-17.23-3.09-30.21-6.96-35.55
					c-0.42,1.94-1.18,4.3-2.55,6.13c-4.19,5.58-10.42,8.5-16.44,11.31c-7.08,3.31-13.76,6.43-17.71,13.56
					C188.57,77.07,192.76,88.41,193.89,91.08"/>
			</defs>
			<clipPath id="SVGID_00000172399732012285242130000004117657698795196561_">
				<use xlink:href="#SVGID_00000060723431160173034240000015665845829385080729_"  style="overflow:visible;"/>
			</clipPath>
			<g style="clip-path:url(#SVGID_00000172399732012285242130000004117657698795196561_);">
				<defs>
					<rect id="SVGID_00000063614037764208321740000017029015149506123195_" x="-322.06" y="-570.83" width="1280" height="1071"/>
				</defs>
				<clipPath id="SVGID_00000130627302921296297460000017725357563821039538_">
					<use xlink:href="#SVGID_00000063614037764208321740000017029015149506123195_"  style="overflow:visible;"/>
				</clipPath>
			</g>
		</g>
		<g>
			<defs>
				<path id="SVGID_00000103226779494724143450000000377991893136597901_" d="M194.27,48.09c-1.27,0-2.31-1-2.31-2.24
					c0-1.24,1.03-2.24,2.31-2.24c1.27,0,2.31,1,2.31,2.24C196.58,47.09,195.54,48.09,194.27,48.09 M194.27,45.1
					c-0.42,0-0.77,0.33-0.77,0.75s0.35,0.75,0.77,0.75s0.77-0.33,0.77-0.75S194.69,45.1,194.27,45.1"/>
			</defs>
			<clipPath id="SVGID_00000104688275319289498580000012936978866781807542_">
				<use xlink:href="#SVGID_00000103226779494724143450000000377991893136597901_"  style="overflow:visible;"/>
			</clipPath>
			<g style="clip-path:url(#SVGID_00000104688275319289498580000012936978866781807542_);">
				<defs>
					<rect id="SVGID_00000161632410136568033400000009097321711885309314_" x="-322.06" y="-570.83" width="1280" height="1071"/>
				</defs>
				<clipPath id="SVGID_00000060030979492827049060000014004227419346957743_">
					<use xlink:href="#SVGID_00000161632410136568033400000009097321711885309314_"  style="overflow:visible;"/>
				</clipPath>
			</g>
		</g>
		<g>
			<defs>
				<path id="SVGID_00000021805608073538634290000015782439884594546868_" d="M215.24,42.31c-1.7,0-3.08-1.34-3.08-2.99
					c0-1.65,1.38-2.99,3.08-2.99c1.7,0,3.08,1.34,3.08,2.99C218.32,40.97,216.94,42.31,215.24,42.31z"/>
			</defs>
			<clipPath id="SVGID_00000039836779131058546270000011922050184040691846_">
				<use xlink:href="#SVGID_00000021805608073538634290000015782439884594546868_"  style="overflow:visible;"/>
			</clipPath>
			<g style="clip-path:url(#SVGID_00000039836779131058546270000011922050184040691846_);">
				<defs>
					<rect id="SVGID_00000031923431548408171770000006443130998444567985_" x="-322.06" y="-570.83" width="1280" height="1071"/>
				</defs>
				<clipPath id="SVGID_00000170997830736101971820000014741030681253908394_">
					<use xlink:href="#SVGID_00000031923431548408171770000006443130998444567985_"  style="overflow:visible;"/>
				</clipPath>
			</g>
		</g>
		<g>
			<defs>
				<path id="SVGID_00000129169575673985116270000007198665522601771188_" d="M203.12,38.56c-2.12,0-3.85-1.67-3.85-3.73
					c0-2.06,1.73-3.73,3.85-3.73s3.85,1.67,3.85,3.73C206.97,36.88,205.24,38.56,203.12,38.56 M203.12,34.08
					c-0.42,0-0.77,0.33-0.77,0.75c0,0.41,0.35,0.75,0.77,0.75c0.42,0,0.77-0.33,0.77-0.75C203.89,34.41,203.54,34.08,203.12,34.08"
					/>
			</defs>
			<clipPath id="SVGID_00000083080410667942304030000012330218884909160119_">
				<use xlink:href="#SVGID_00000129169575673985116270000007198665522601771188_"  style="overflow:visible;"/>
			</clipPath>
			<g style="clip-path:url(#SVGID_00000083080410667942304030000012330218884909160119_);">
				<defs>
					<rect id="SVGID_00000025412721194098360910000001750863873520935820_" x="-322.06" y="-570.83" width="1280" height="1071"/>
				</defs>
				<clipPath id="SVGID_00000020379194786531682160000002181909987932670390_">
					<use xlink:href="#SVGID_00000025412721194098360910000001750863873520935820_"  style="overflow:visible;"/>
				</clipPath>
			</g>
		</g>
	</g>
</g>
<g>
	<g>
		<defs>
			<path id="SVGID_00000015347106412187829970000016904230185431096745_" d="M397.48,80.09h-16.33c-0.42-0.19-0.93-0.22-1.37-0.09
				c-0.04,0.02-0.06,0.06-0.1,0.09h-28.99c0,0-0.06-0.06-0.1-0.09c-0.44-0.15-0.95-0.09-1.37,0.09h-16.33
				c-0.76,0-1.55-0.76-1.55-1.52c0-1,0.76-1.52,1.55-1.52h64.59c0.76,0,1.55,0.5,1.55,1.52C399.03,79.32,398.26,80.09,397.48,80.09z
				 M355.94,41.15v1.56c0,0.76,0.76,1.52,1.55,1.52h15.42c0.76,0,1.55-0.76,1.55-1.52v-1.56h21.49v32.88h-61.48V41.15H355.94z
				 M371.36,38.16v1.39c0,0-0.02,0.06-0.02,0.11c0,0.04,0,0.06,0.02,0.09v1.45h-12.33v-1.45c0,0,0.02-0.06,0.02-0.09
				c0-0.04,0-0.07-0.02-0.11v-1.39H371.36z M398.99,74.29V39.66c0-1-0.76-1.51-1.55-1.51h-23.01v-1.52c0-1-0.76-1.52-1.55-1.52
				h-7.79v-4.39c0-0.98-0.74-1.49-1.47-1.49c-0.73,0-1.47,0.5-1.47,1.49v4.4h-4.68c-0.76,0-1.55,0.5-1.55,1.52v1.52h-23.01
				c-0.76,0-1.55,0.5-1.55,1.51v34.6c-1.81,0.61-3.11,2.29-3.11,4.27c0,2.53,2.04,4.55,4.62,4.55h14.45
				c-1.16,2.29-3.47,6.76-8,15.61c-0.52,0.74-0.25,1.75,0.52,1.99c0.25,0,0.52,0.24,0.76,0.24c0.52,0,1.03-0.5,1.28-1
				c0,0,0.02-0.06,8.64-16.86h11.64v16.35c0,0.74,0.74,1.49,1.47,1.49c0.73,0,1.47-0.74,1.47-1.49V83.1h14.75
				c0.86,1.69,3.05,5.97,8.64,16.86c0.25,0.5,0.76,1,1.28,1c0.25,0,0.52-0.24,0.76-0.24c0.76-0.24,1.03-1.25,0.52-1.99
				c0,0-0.02-0.04-8-15.61h14.45c2.56,0,4.62-2.03,4.62-4.55c0-2.01-1.3-3.68-3.11-4.27H398.99z"/>
		</defs>
		<clipPath id="SVGID_00000001625896939721296750000009828762867426486194_">
			<use xlink:href="#SVGID_00000015347106412187829970000016904230185431096745_"  style="overflow:visible;"/>
		</clipPath>
		<g style="clip-path:url(#SVGID_00000001625896939721296750000009828762867426486194_);">
			<defs>
				<rect id="SVGID_00000099623893025829903410000000932645021529408393_" x="-368.63" y="-573.6" width="1280" height="1071"/>
			</defs>
			<clipPath id="SVGID_00000052091886134008832130000005013010678543707040_">
				<use xlink:href="#SVGID_00000099623893025829903410000000932645021529408393_"  style="overflow:visible;"/>
			</clipPath>
		</g>
	</g>
	<g>
		<defs>
			<path id="SVGID_00000144303602800638484670000007263661028635964297_" d="M365.2,60.4c-0.68,0-1.14-0.44-1.14-1.11
				s0.46-1.11,1.14-1.11c0.68,0,1.14,0.44,1.14,1.11S365.88,60.4,365.2,60.4z M365.2,55.97c-1.94,0-3.42,1.44-3.42,3.33
				c0,1.88,1.48,3.33,3.42,3.33c1.94,0,3.42-1.44,3.42-3.33C368.62,57.41,367.14,55.97,365.2,55.97z M365.2,64.84
				c-3.19,0-5.69-2.44-5.69-5.54s2.5-5.54,5.69-5.54c3.19,0,5.69,2.44,5.69,5.54S368.39,64.84,365.2,64.84z M365.2,51.54
				c-4.44,0-7.97,3.44-7.97,7.76s3.53,7.76,7.97,7.76c4.44,0,7.97-3.44,7.97-7.76S369.64,51.54,365.2,51.54z M365.2,69.27
				c-5.69,0-10.25-4.43-10.25-9.98s4.55-9.98,10.25-9.98c5.69,0,10.25,4.43,10.25,9.98S370.89,69.27,365.2,69.27z M365.2,47.1
				c-6.94,0-12.52,5.43-12.52,12.2s5.58,12.2,12.52,12.2s12.52-5.43,12.52-12.2S372.15,47.1,365.2,47.1z"/>
		</defs>
		<clipPath id="SVGID_00000069368532569473175040000010705974189823529145_">
			<use xlink:href="#SVGID_00000144303602800638484670000007263661028635964297_"  style="overflow:visible;"/>
		</clipPath>
		<g style="clip-path:url(#SVGID_00000069368532569473175040000010705974189823529145_);">
			<defs>
				<rect id="SVGID_00000032609093009203166290000002139895291937901984_" x="-368.63" y="-573.6" width="1280" height="1071"/>
			</defs>
			<clipPath id="SVGID_00000116921502871384397160000008681150806031144361_">
				<use xlink:href="#SVGID_00000032609093009203166290000002139895291937901984_"  style="overflow:visible;"/>
			</clipPath>
		</g>
	</g>
</g>
<g>
	<defs>
		<path id="SVGID_00000171693901142926498570000006640897411894266280_" d="M517.7,80.89V67.44h11.03c1.23,0,2.22-0.98,2.22-2.19
			v-4.6h9c0.04,0,0.1,0,0.17,0c0.73,0,2.74-0.14,4.3-1.59c0.83-0.77,1.82-2.18,1.82-4.57v-7.38c4.3-1.06,7.49-4.89,7.49-9.45
			c0-5.38-4.44-9.75-9.9-9.75c-5.46,0-9.9,4.37-9.9,9.75c0,4.69,3.38,8.62,7.87,9.55v7.28c0,0.65-0.14,1.11-0.41,1.37
			c-0.37,0.36-1.08,0.42-1.25,0.41c-0.05,0-0.09-0.01-0.14-0.01h-9.04v-3.5c0-1.21-0.99-2.19-2.22-2.19h-26.49
			c-1.22,0-2.22,0.98-2.22,2.19v4.26h-9.39c-0.54-0.02-2.77,0.01-4.47,1.58c-0.83,0.77-1.82,2.18-1.82,4.57v7.38
			c-4.29,1.07-7.49,4.89-7.49,9.45c0,5.38,4.44,9.75,9.9,9.75c5.46,0,9.9-4.37,9.9-9.75c0-4.69-3.38-8.62-7.87-9.54v-7.28
			c0-0.65,0.14-1.11,0.4-1.37c0.38-0.36,1.08-0.43,1.26-0.41c0.05,0,0.09,0,0.14,0h9.43v3.84c0,1.21,0.99,2.19,2.22,2.19h11.03
			v13.37c-0.05,0.83-0.18,4.94,2.54,7.85c1.44,1.54,3.36,2.43,5.71,2.64c0.96,3.63,4.31,6.32,8.29,6.32h11.94
			c4.73,0,8.58-3.79,8.58-8.45c0-4.66-3.85-8.45-8.58-8.45h-11.94c-3.93,0-7.24,2.62-8.25,6.19c-1.05-0.16-1.86-0.55-2.46-1.19
			c-1.32-1.4-1.45-3.83-1.39-4.63C517.69,81.01,517.7,80.95,517.7,80.89z M538.36,37.67c0-2.96,2.45-5.38,5.46-5.38
			c3.01,0,5.46,2.41,5.46,5.38c0,2.97-2.45,5.38-5.46,5.38C540.81,43.05,538.36,40.64,538.36,37.67z M492.21,80.02
			c0,2.97-2.45,5.38-5.46,5.38c-3.01,0-5.46-2.41-5.46-5.38c0-2.97,2.45-5.38,5.46-5.38C489.76,74.64,492.21,77.06,492.21,80.02z
			 M504.45,63.07h22.05v-8.1h-22.05V63.07z M529.79,85.09h11.94c2.28,0,4.14,1.83,4.14,4.08c0,2.25-1.86,4.08-4.14,4.08h-11.94
			c-2.28,0-4.14-1.83-4.14-4.08C525.65,86.92,527.51,85.09,529.79,85.09z"/>
	</defs>
	<clipPath id="SVGID_00000115483616980741018410000007096765375856679814_">
		<use xlink:href="#SVGID_00000171693901142926498570000006640897411894266280_"  style="overflow:visible;"/>
	</clipPath>
	<g style="clip-path:url(#SVGID_00000115483616980741018410000007096765375856679814_);">
		<defs>
			<rect id="SVGID_00000096025901125705189300000002355008344875234195_" x="-412.7" y="-579.98" width="1280" height="1071"/>
		</defs>
		<clipPath id="SVGID_00000056427355996353080950000010177362301277961648_">
			<use xlink:href="#SVGID_00000096025901125705189300000002355008344875234195_"  style="overflow:visible;"/>
		</clipPath>
	</g>
</g>
<g>
	<defs>
		<path id="SVGID_00000028324998384222834330000009538319992542831753_" d="M687.64,34.41h-22.28h-22.28
			c-7.52,0-13.65,5.94-13.65,13.24v21.61v21.61c0,7.3,6.12,13.24,13.65,13.24h22.28h22.28c7.52,0,13.64-5.94,13.64-13.24V69.25
			V47.64C701.29,40.34,695.17,34.41,687.64,34.41 M697,47.64v19.53h-8.03l-4.31-7.24c-0.38-0.64-1.09-1.04-1.86-1.04
			s-1.47,0.4-1.86,1.04l-4.31,7.24h-9.14V57.11c0-0.74-0.41-1.43-1.07-1.8l-5.32-2.98l5.32-2.98c0.66-0.37,1.07-1.06,1.07-1.8v-8.99
			h20.14C692.8,38.56,697,42.64,697,47.64 M643.08,38.56h20.14v7.79l-7.46,4.18c-0.66,0.37-1.07,1.06-1.07,1.8
			c0,0.74,0.41,1.43,1.07,1.8l7.46,4.18v8.87h-10.38c-0.77,0-1.47,0.4-1.86,1.04l-3.07,5.16l-3.07-5.16
			c-0.38-0.64-1.09-1.04-1.86-1.04h-9.26V47.64C633.73,42.64,637.92,38.56,643.08,38.56 M633.73,90.87V71.33h8.03l4.31,7.24
			c0.38,0.64,1.09,1.04,1.86,1.04c0.77,0,1.47-0.4,1.86-1.04l4.31-7.24h9.14v11.1c0,0.74,0.41,1.43,1.07,1.8l3.48,1.95l-3.48,1.95
			c-0.66,0.37-1.07,1.06-1.07,1.8v10.02h-20.14C637.92,99.95,633.73,95.88,633.73,90.87 M687.64,99.95h-20.14v-8.82l5.62-3.15
			c0.66-0.37,1.07-1.06,1.07-1.8c0-0.74-0.41-1.43-1.07-1.8l-5.62-3.15v-9.9h10.38c0.77,0,1.47-0.4,1.86-1.04l3.07-5.16l3.07,5.16
			c0.38,0.64,1.09,1.04,1.86,1.04H697v19.53C697,95.88,692.8,99.95,687.64,99.95"/>
	</defs>
	<clipPath id="SVGID_00000072257976520422390980000017477510189267891886_">
		<use xlink:href="#SVGID_00000028324998384222834330000009538319992542831753_"  style="overflow:visible;"/>
	</clipPath>
	<g style="clip-path:url(#SVGID_00000072257976520422390980000017477510189267891886_);">
		<defs>
			<rect id="SVGID_00000181781727799500527840000002956834634503246227_" x="-448.78" y="-571.5" width="1280" height="1071"/>
		</defs>
		<clipPath id="SVGID_00000067217181372040776850000006609917669574092953_">
			<use xlink:href="#SVGID_00000181781727799500527840000002956834634503246227_"  style="overflow:visible;"/>
		</clipPath>
	</g>
</g>
</svg>
