<?xml version="1.0" encoding="utf-8"?>
<!-- Generator: Adobe Illustrator 26.2.1, SVG Export Plug-In . SVG Version: 6.00 Build 0)  -->
<svg version="1.1" id="Layer_1" xmlns="http://www.w3.org/2000/svg" xmlns:xlink="http://www.w3.org/1999/xlink" x="0px" y="0px"
	 viewBox="0 0 130.08 129.71" style="enable-background:new 0 0 130.08 129.71;" xml:space="preserve">
<style type="text/css">
	.st0{clip-path:url(#SVGID_00000155832835533930232580000000911751171671215235_);}
	.st1{clip-path:url(#SVGID_00000037693336189296604420000018334591485670569142_);fill:#7500C0;}
	.st2{clip-path:url(#SVGID_00000117638629988210842730000006706668335052320904_);}
	.st3{clip-path:url(#SVGID_00000183964234009341938400000010730997372320771726_);fill:#7500C0;}
	.st4{clip-path:url(#SVGID_00000095321400927805763650000002444639355209367743_);}
	.st5{clip-path:url(#SVGID_00000021094311135676141840000011182893652234824617_);fill:#7500C0;}
	.st6{clip-path:url(#SVGID_00000104678051932097994890000012711515814187564185_);}
	.st7{clip-path:url(#SVGID_00000042002614457041526910000007222912556757812912_);fill:#7500C0;}
	.st8{clip-path:url(#SVGID_00000014614496313154270630000004603847862566220160_);}
	.st9{clip-path:url(#SVGID_00000031909782856562559460000001673236598558718876_);fill:#7500C0;}
	.st10{clip-path:url(#SVGID_00000181781199847368640330000013619404998794626965_);}
	.st11{clip-path:url(#SVGID_00000112625682722049518820000007885977299970093734_);fill:#7500C0;}
	.st12{clip-path:url(#SVGID_00000069366687903639014270000017066331097631790750_);}
	.st13{clip-path:url(#SVGID_00000130620088848350453670000014678081291578367140_);fill:#7500C0;}
	.st14{clip-path:url(#SVGID_00000089551416471036845340000012106997213646981279_);}
	.st15{clip-path:url(#SVGID_00000000181861492503309600000005356899324761176458_);fill:#7500C0;}
	.st16{clip-path:url(#SVGID_00000178911620372661540290000009300208861914259387_);}
	.st17{clip-path:url(#SVGID_00000160897157644889459430000003134193491112260029_);fill:#7500C0;}
	.st18{clip-path:url(#SVGID_00000008847014352414958260000016760295559999039671_);}
	.st19{clip-path:url(#SVGID_00000081614803442081875390000002675731935851516558_);fill:#7500C0;}
	.st20{clip-path:url(#SVGID_00000052822974554621741250000002844196251257329823_);}
	.st21{clip-path:url(#SVGID_00000178913573194565706240000000060311641598606011_);fill:#7500C0;}
	.st22{clip-path:url(#SVGID_00000080179357249122789820000009775531836994837160_);}
	.st23{clip-path:url(#SVGID_00000111881980826965841840000015760682830949993123_);fill:#7500C0;}
	.st24{clip-path:url(#SVGID_00000143606827174775487710000009966938263252428679_);}
	.st25{clip-path:url(#SVGID_00000111193193848759212650000000290002081012050087_);fill:#7500C0;}
	.st26{clip-path:url(#SVGID_00000114786662437185972280000000186576561305950138_);}
	.st27{clip-path:url(#SVGID_00000156568250922437112770000013224491264926987949_);fill:#7500C0;}
	.st28{clip-path:url(#SVGID_00000039103582784462723380000002591959514844513210_);}
	.st29{clip-path:url(#SVGID_00000000181309203068122890000000450315526919167925_);fill:#7500C0;}
	.st30{clip-path:url(#SVGID_00000020367765971140756180000011172250620756584607_);}
	.st31{clip-path:url(#SVGID_00000176028238153237721850000008250584523706818478_);fill:#7500C0;}
	.st32{clip-path:url(#SVGID_00000151524255636548301660000009345106463104157585_);}
	.st33{clip-path:url(#SVGID_00000076599264560603020910000005026360983158060200_);fill:#7500C0;}
	.st34{clip-path:url(#SVGID_00000181777330036226724920000007144227852630191765_);}
	.st35{clip-path:url(#SVGID_00000137829931073263749150000000363310538389120671_);fill:#7500C0;}
	.st36{clip-path:url(#SVGID_00000181781075818627025370000014511956168068533384_);}
	.st37{clip-path:url(#SVGID_00000104701226396428786910000011548035862452759201_);fill:#7500C0;}
	.st38{clip-path:url(#SVGID_00000161595423421301714830000014136877624257900976_);}
	.st39{clip-path:url(#SVGID_00000134217964233562451900000001108044099049880461_);fill:#7500C0;}
	.st40{clip-path:url(#SVGID_00000023999660670277243330000016805467774386250939_);}
	.st41{clip-path:url(#SVGID_00000062871389125326185580000007620624896538571187_);fill:#7500C0;}
	.st42{clip-path:url(#SVGID_00000094598334167919970480000008438206896467905462_);}
	.st43{clip-path:url(#SVGID_00000125578030197517913600000016902536275799726004_);fill:#7500C0;}
	.st44{clip-path:url(#SVGID_00000061470977351293130090000003205885126393897385_);}
	.st45{clip-path:url(#SVGID_00000021809908727953450500000007892411134938863531_);fill:#7500C0;}
</style>
<g>
	<g>
		<defs>
			<path id="SVGID_1_" d="M35.8,94.92V31.68c0-1.19-0.94-2.15-2.1-2.15c-1.16,0-2.1,0.96-2.1,2.15v65.39c0,1.19,0.94,2.15,2.1,2.15
				h64.78v-4.31L35.8,94.92z"/>
		</defs>
		<clipPath id="SVGID_00000182516404746266115310000015049974416167290039_">
			<use xlink:href="#SVGID_1_"  style="overflow:visible;"/>
		</clipPath>
		<g style="clip-path:url(#SVGID_00000182516404746266115310000015049974416167290039_);">
			<defs>
				<rect id="SVGID_00000121259171485177310960000009387452354506329230_" x="-100.31" y="-573.4" width="1280" height="1071"/>
			</defs>
			<clipPath id="SVGID_00000120551659669695318540000000486475311956453024_">
				<use xlink:href="#SVGID_00000121259171485177310960000009387452354506329230_"  style="overflow:visible;"/>
			</clipPath>
			
				<rect x="30.6" y="28.52" style="clip-path:url(#SVGID_00000120551659669695318540000000486475311956453024_);fill:#7500C0;" width="68.88" height="71.7"/>
		</g>
	</g>
	<g>
		<defs>
			<path id="SVGID_00000075859718572901948570000012095378324525747369_" d="M46.08,89.01c1.16,0,2.1-0.96,2.1-2.15V66.39
				c0-1.19-0.94-2.15-2.1-2.15c-1.16,0-2.1,0.96-2.1,2.15v20.47C43.98,88.05,44.92,89.01,46.08,89.01"/>
		</defs>
		<clipPath id="SVGID_00000039097170520225031710000017220992688605191323_">
			<use xlink:href="#SVGID_00000075859718572901948570000012095378324525747369_"  style="overflow:visible;"/>
		</clipPath>
		<g style="clip-path:url(#SVGID_00000039097170520225031710000017220992688605191323_);">
			<defs>
				<rect id="SVGID_00000169547111358338379180000016101190993929459595_" x="-100.31" y="-573.4" width="1280" height="1071"/>
			</defs>
			<clipPath id="SVGID_00000135690580249844508300000014713078376727506074_">
				<use xlink:href="#SVGID_00000169547111358338379180000016101190993929459595_"  style="overflow:visible;"/>
			</clipPath>
			
				<rect x="42.98" y="63.23" style="clip-path:url(#SVGID_00000135690580249844508300000014713078376727506074_);fill:#7500C0;" width="6.2" height="26.78"/>
		</g>
	</g>
	<g>
		<defs>
			<path id="SVGID_00000181765434295175428620000007736968799491882425_" d="M56.75,89.01c1.16,0,2.1-0.96,2.1-2.15V62.38
				c0-1.19-0.94-2.15-2.1-2.15c-1.16,0-2.1,0.96-2.1,2.15v24.48C54.65,88.05,55.59,89.01,56.75,89.01"/>
		</defs>
		<clipPath id="SVGID_00000111909445956672575820000010623742877841917873_">
			<use xlink:href="#SVGID_00000181765434295175428620000007736968799491882425_"  style="overflow:visible;"/>
		</clipPath>
		<g style="clip-path:url(#SVGID_00000111909445956672575820000010623742877841917873_);">
			<defs>
				<rect id="SVGID_00000028321270559993480770000014308005159341397665_" x="-100.31" y="-573.4" width="1280" height="1071"/>
			</defs>
			<clipPath id="SVGID_00000066506662120224694970000006328063040230644614_">
				<use xlink:href="#SVGID_00000028321270559993480770000014308005159341397665_"  style="overflow:visible;"/>
			</clipPath>
			
				<rect x="53.65" y="59.23" style="clip-path:url(#SVGID_00000066506662120224694970000006328063040230644614_);fill:#7500C0;" width="6.2" height="30.78"/>
		</g>
	</g>
	<g>
		<defs>
			<path id="SVGID_00000046297798128212263940000005441921152692046218_" d="M78.09,89.01c1.16,0,2.1-0.96,2.1-2.15V64.93
				c0-1.19-0.94-2.15-2.1-2.15c-1.16,0-2.1,0.96-2.1,2.15v21.93C75.99,88.05,76.93,89.01,78.09,89.01"/>
		</defs>
		<clipPath id="SVGID_00000122702892913782341070000015149993075422006446_">
			<use xlink:href="#SVGID_00000046297798128212263940000005441921152692046218_"  style="overflow:visible;"/>
		</clipPath>
		<g style="clip-path:url(#SVGID_00000122702892913782341070000015149993075422006446_);">
			<defs>
				<rect id="SVGID_00000136374771002524510390000008708376050146913680_" x="-100.31" y="-573.4" width="1280" height="1071"/>
			</defs>
			<clipPath id="SVGID_00000114043622352894599410000013718741207871340162_">
				<use xlink:href="#SVGID_00000136374771002524510390000008708376050146913680_"  style="overflow:visible;"/>
			</clipPath>
			
				<rect x="74.99" y="61.77" style="clip-path:url(#SVGID_00000114043622352894599410000013718741207871340162_);fill:#7500C0;" width="6.2" height="28.24"/>
		</g>
	</g>
	<g>
		<defs>
			<path id="SVGID_00000155144253012787179680000016129337181005024941_" d="M67.42,89.01c1.16,0,2.1-0.96,2.1-2.15V60.44
				c0-1.19-0.94-2.15-2.1-2.15c-1.16,0-2.1,0.96-2.1,2.15v26.42C65.32,88.05,66.26,89.01,67.42,89.01"/>
		</defs>
		<clipPath id="SVGID_00000113349102218356103890000012265818483585600166_">
			<use xlink:href="#SVGID_00000155144253012787179680000016129337181005024941_"  style="overflow:visible;"/>
		</clipPath>
		<g style="clip-path:url(#SVGID_00000113349102218356103890000012265818483585600166_);">
			<defs>
				<rect id="SVGID_00000010284339337402722880000014299361146617421485_" x="-100.31" y="-573.4" width="1280" height="1071"/>
			</defs>
			<clipPath id="SVGID_00000094612518971231167700000003468308355388589235_">
				<use xlink:href="#SVGID_00000010284339337402722880000014299361146617421485_"  style="overflow:visible;"/>
			</clipPath>
			
				<rect x="64.32" y="57.29" style="clip-path:url(#SVGID_00000094612518971231167700000003468308355388589235_);fill:#7500C0;" width="6.2" height="32.72"/>
		</g>
	</g>
	<g>
		<defs>
			<path id="SVGID_00000181795260727022851710000010682414127298508195_" d="M88.75,89.01c1.16,0,2.1-0.96,2.1-2.15V69.41
				c0-1.19-0.94-2.15-2.1-2.15s-2.1,0.96-2.1,2.15v17.45C86.65,88.05,87.59,89.01,88.75,89.01"/>
		</defs>
		<clipPath id="SVGID_00000121982702026041893560000013888427292726462871_">
			<use xlink:href="#SVGID_00000181795260727022851710000010682414127298508195_"  style="overflow:visible;"/>
		</clipPath>
		<g style="clip-path:url(#SVGID_00000121982702026041893560000013888427292726462871_);">
			<defs>
				<rect id="SVGID_00000065075734656516929710000000677321481276478890_" x="-100.31" y="-573.4" width="1280" height="1071"/>
			</defs>
			<clipPath id="SVGID_00000116212963141178180600000009094652441278215834_">
				<use xlink:href="#SVGID_00000065075734656516929710000000677321481276478890_"  style="overflow:visible;"/>
			</clipPath>
			
				<rect x="85.65" y="66.26" style="clip-path:url(#SVGID_00000116212963141178180600000009094652441278215834_);fill:#7500C0;" width="6.2" height="23.76"/>
		</g>
	</g>
	<g>
		<defs>
			<path id="SVGID_00000061470510561745135760000012705739080856491167_" d="M56.75,57.7c1.16,0,2.1-0.96,2.1-2.15V42.88
				c0-1.19-0.94-2.15-2.1-2.15c-1.16,0-2.1,0.96-2.1,2.15v12.67C54.65,56.74,55.59,57.7,56.75,57.7"/>
		</defs>
		<clipPath id="SVGID_00000051375479260733061880000005513069311817461695_">
			<use xlink:href="#SVGID_00000061470510561745135760000012705739080856491167_"  style="overflow:visible;"/>
		</clipPath>
		<g style="clip-path:url(#SVGID_00000051375479260733061880000005513069311817461695_);">
			<defs>
				<rect id="SVGID_00000150072603668720852630000012025864716559202947_" x="-100.31" y="-573.4" width="1280" height="1071"/>
			</defs>
			<clipPath id="SVGID_00000083781633096374272340000012112661892295305870_">
				<use xlink:href="#SVGID_00000150072603668720852630000012025864716559202947_"  style="overflow:visible;"/>
			</clipPath>
			
				<rect x="53.65" y="39.72" style="clip-path:url(#SVGID_00000083781633096374272340000012112661892295305870_);fill:#7500C0;" width="6.2" height="18.98"/>
		</g>
	</g>
	<g>
		<defs>
			<path id="SVGID_00000153703710452384732210000010690280037596097692_" d="M46.08,61.66c1.16,0,2.1-0.96,2.1-2.15v-14.9
				c0-1.19-0.94-2.15-2.1-2.15c-1.16,0-2.1,0.96-2.1,2.15v14.9C43.98,60.69,44.92,61.66,46.08,61.66"/>
		</defs>
		<clipPath id="SVGID_00000049933414275314109050000007394592983667960460_">
			<use xlink:href="#SVGID_00000153703710452384732210000010690280037596097692_"  style="overflow:visible;"/>
		</clipPath>
		<g style="clip-path:url(#SVGID_00000049933414275314109050000007394592983667960460_);">
			<defs>
				<rect id="SVGID_00000094611684610465459300000005941226695036648605_" x="-100.31" y="-573.4" width="1280" height="1071"/>
			</defs>
			<clipPath id="SVGID_00000092415727616567928600000013502346250169473693_">
				<use xlink:href="#SVGID_00000094611684610465459300000005941226695036648605_"  style="overflow:visible;"/>
			</clipPath>
			
				<rect x="42.98" y="41.45" style="clip-path:url(#SVGID_00000092415727616567928600000013502346250169473693_);fill:#7500C0;" width="6.2" height="21.2"/>
		</g>
	</g>
	<g>
		<defs>
			<path id="SVGID_00000078005614756929806460000013785180965584403345_" d="M78.09,60.27c1.16,0,2.1-0.96,2.1-2.15v-5.94
				c0-1.19-0.94-2.15-2.1-2.15c-1.16,0-2.1,0.96-2.1,2.15v5.94C75.99,59.31,76.93,60.27,78.09,60.27"/>
		</defs>
		<clipPath id="SVGID_00000092454597787711106760000007133555964393051563_">
			<use xlink:href="#SVGID_00000078005614756929806460000013785180965584403345_"  style="overflow:visible;"/>
		</clipPath>
		<g style="clip-path:url(#SVGID_00000092454597787711106760000007133555964393051563_);">
			<defs>
				<rect id="SVGID_00000037660609951162849410000012828026086943384227_" x="-100.31" y="-573.4" width="1280" height="1071"/>
			</defs>
			<clipPath id="SVGID_00000105421793957349048790000009870653555785270455_">
				<use xlink:href="#SVGID_00000037660609951162849410000012828026086943384227_"  style="overflow:visible;"/>
			</clipPath>
			
				<rect x="74.99" y="49.02" style="clip-path:url(#SVGID_00000105421793957349048790000009870653555785270455_);fill:#7500C0;" width="6.2" height="12.25"/>
		</g>
	</g>
	<g>
		<defs>
			<path id="SVGID_00000069397802800778209370000008315726813122559139_" d="M88.75,64.48c1.16,0,2.1-0.96,2.1-2.15v-3.39
				c0-1.19-0.94-2.15-2.1-2.15s-2.1,0.96-2.1,2.15v3.39C86.65,63.52,87.59,64.48,88.75,64.48"/>
		</defs>
		<clipPath id="SVGID_00000154400435446664158590000016438391084763097535_">
			<use xlink:href="#SVGID_00000069397802800778209370000008315726813122559139_"  style="overflow:visible;"/>
		</clipPath>
		<g style="clip-path:url(#SVGID_00000154400435446664158590000016438391084763097535_);">
			<defs>
				<rect id="SVGID_00000033355207360132050860000012447866667995553172_" x="-100.31" y="-573.4" width="1280" height="1071"/>
			</defs>
			<clipPath id="SVGID_00000146485172199293576580000015908678760881227412_">
				<use xlink:href="#SVGID_00000033355207360132050860000012447866667995553172_"  style="overflow:visible;"/>
			</clipPath>
			
				<rect x="85.65" y="55.78" style="clip-path:url(#SVGID_00000146485172199293576580000015908678760881227412_);fill:#7500C0;" width="6.2" height="9.7"/>
		</g>
	</g>
	<g>
		<defs>
			<path id="SVGID_00000016777327342507912570000015895174942164334263_" d="M67.42,55.79c1.16,0,2.1-0.96,2.1-2.15V33.65
				c0-1.19-0.94-2.15-2.1-2.15c-1.16,0-2.1,0.97-2.1,2.15v19.98C65.32,54.82,66.26,55.79,67.42,55.79"/>
		</defs>
		<clipPath id="SVGID_00000028299870495687604480000005767502011358756763_">
			<use xlink:href="#SVGID_00000016777327342507912570000015895174942164334263_"  style="overflow:visible;"/>
		</clipPath>
		<g style="clip-path:url(#SVGID_00000028299870495687604480000005767502011358756763_);">
			<defs>
				<rect id="SVGID_00000106123259892944282180000004356452923278837379_" x="-100.31" y="-573.4" width="1280" height="1071"/>
			</defs>
			<clipPath id="SVGID_00000119093942053550590480000014970094413079603087_">
				<use xlink:href="#SVGID_00000106123259892944282180000004356452923278837379_"  style="overflow:visible;"/>
			</clipPath>
			
				<rect x="64.32" y="30.5" style="clip-path:url(#SVGID_00000119093942053550590480000014970094413079603087_);fill:#7500C0;" width="6.2" height="26.29"/>
		</g>
	</g>
</g>
<g>
	<g>
		<defs>
			<path id="SVGID_00000062166908913791364770000013535781575302277550_" d="M239.99,32.41h-55.45c-3.69,0-6.71,3.06-6.71,6.79
				v56.11c0,3.74,3.02,6.79,6.71,6.79h55.45c3.69,0,6.71-3.06,6.71-6.79V39.2C246.7,35.46,243.68,32.41,239.99,32.41z M242.85,95.31
				c0,1.59-1.28,2.89-2.86,2.89h-55.45c-1.58,0-2.86-1.3-2.86-2.89V39.2c0-1.6,1.28-2.89,2.86-2.89h55.45c1.58,0,2.86,1.3,2.86,2.89
				V95.31z"/>
		</defs>
		<clipPath id="SVGID_00000151508978824269971110000007958596969219190659_">
			<use xlink:href="#SVGID_00000062166908913791364770000013535781575302277550_"  style="overflow:visible;"/>
		</clipPath>
		<g style="clip-path:url(#SVGID_00000151508978824269971110000007958596969219190659_);">
			<defs>
				<rect id="SVGID_00000001654807467472453730000007301393037655267768_" x="-137.75" y="-571.51" width="1280" height="1071"/>
			</defs>
			<clipPath id="SVGID_00000139978053137807749850000001255465738430427056_">
				<use xlink:href="#SVGID_00000001654807467472453730000007301393037655267768_"  style="overflow:visible;"/>
			</clipPath>
		</g>
	</g>
	<g>
		<defs>
			<path id="SVGID_00000114072753580604376300000000268036490229416857_" d="M235.65,60.55c-2.9,0-5.28,2.39-5.29,5.32
				c-0.01,1.02,0.28,1.98,0.79,2.83l-2.48,3.09c-0.55-0.2-1.14-0.33-1.76-0.33c-2.19,0-4.08,1.36-4.88,3.28l-9.6-0.57
				c-0.64-2.23-2.65-3.87-5.06-3.87c-2.92,0-5.29,2.4-5.29,5.36c0,0.62,0.13,1.2,0.32,1.75l-8.83,7.16
				c-0.81-0.51-1.76-0.82-2.78-0.82c-2.92,0-5.29,2.4-5.29,5.36c0,2.96,2.37,5.36,5.29,5.36c2.92,0,5.29-2.41,5.29-5.36
				c0-0.62-0.12-1.2-0.31-1.75l8.83-7.16c0.81,0.51,1.76,0.82,2.78,0.82c2.19,0,4.08-1.36,4.88-3.29l9.6,0.57
				c0.64,2.23,2.65,3.87,5.06,3.87c2.92,0,5.29-2.4,5.29-5.36c0-1.02-0.3-1.97-0.79-2.79l2.48-3.09c0.55,0.2,1.13,0.32,1.73,0.33
				h0.04c2.9,0,5.28-2.39,5.29-5.32c0.01-1.43-0.53-2.78-1.52-3.8C238.43,61.13,237.1,60.56,235.65,60.55 M190.77,90.91
				c-0.98,0-1.77-0.8-1.77-1.79c0-0.99,0.79-1.79,1.77-1.79c0.98,0,1.77,0.8,1.77,1.79C192.54,90.11,191.75,90.91,190.77,90.91
				 M207.36,77.46c-0.98,0-1.77-0.8-1.77-1.79c0-0.99,0.79-1.79,1.77-1.79c0.98,0,1.77,0.8,1.77,1.79
				C209.13,76.66,208.33,77.46,207.36,77.46 M226.9,78.62c-0.98,0-1.77-0.8-1.77-1.79s0.79-1.79,1.77-1.79
				c0.98,0,1.77,0.8,1.77,1.79S227.88,78.62,226.9,78.62 M235.65,67.71v1.78l-0.01-1.78c-0.47,0-0.92-0.19-1.25-0.53
				c-0.33-0.34-0.51-0.79-0.51-1.27c0.01-0.98,0.8-1.78,1.78-1.78c0.47,0,0.92,0.19,1.25,0.53c0.33,0.34,0.51,0.79,0.51,1.27
				C237.42,66.91,236.62,67.71,235.65,67.71"/>
		</defs>
		<clipPath id="SVGID_00000104673397190577964470000016359876673083833755_">
			<use xlink:href="#SVGID_00000114072753580604376300000000268036490229416857_"  style="overflow:visible;"/>
		</clipPath>
		<g style="clip-path:url(#SVGID_00000104673397190577964470000016359876673083833755_);">
			<defs>
				<rect id="SVGID_00000044880498418447068280000010296848393937198730_" x="-137.75" y="-571.51" width="1280" height="1071"/>
			</defs>
			<clipPath id="SVGID_00000020378010682046875480000017279815641646017924_">
				<use xlink:href="#SVGID_00000044880498418447068280000010296848393937198730_"  style="overflow:visible;"/>
			</clipPath>
		</g>
	</g>
	<g>
		<defs>
			<path id="SVGID_00000082352729834921244460000015824838292868652418_" d="M235.65,39.62c-2.92,0-5.29,2.4-5.29,5.36
				c0,0.88,0.23,1.71,0.61,2.44l-5.37,5.79c-0.59-0.23-1.23-0.37-1.9-0.37c-2.78,0-5.04,2.19-5.25,4.95l-9.46,0.79
				c-0.82-1.87-2.68-3.19-4.83-3.19c-2.92,0-5.29,2.4-5.29,5.36c0,0.89,0.23,1.71,0.61,2.45l-7.61,7.6c-0.67-0.32-1.42-0.5-2.21-0.5
				c-2.92,0-5.29,2.4-5.29,5.36c0,2.96,2.37,5.36,5.29,5.36c2.92,0,5.29-2.4,5.29-5.36c0-0.85-0.22-1.65-0.56-2.36l7.65-7.64
				c0.65,0.29,1.37,0.46,2.12,0.46c2.44,0,4.48-1.69,5.09-3.97l10.14-0.85c0.96,1.37,2.53,2.27,4.31,2.27
				c2.92,0,5.29-2.41,5.29-5.36c0-0.97-0.28-1.87-0.72-2.66l5.26-5.67c0.65,0.29,1.37,0.46,2.13,0.46c2.92,0,5.29-2.41,5.29-5.36
				C240.94,42.03,238.57,39.62,235.65,39.62 M189.65,77.46c-0.98,0-1.77-0.8-1.77-1.79s0.79-1.79,1.77-1.79
				c0.98,0,1.77,0.8,1.77,1.79S190.62,77.46,189.65,77.46 M204.14,62.55c-0.98,0-1.77-0.8-1.77-1.79s0.79-1.79,1.77-1.79
				c0.98,0,1.77,0.8,1.77,1.79S205.12,62.55,204.14,62.55 M223.69,60c-0.98,0-1.77-0.8-1.77-1.79c0-0.99,0.79-1.79,1.77-1.79
				c0.98,0,1.77,0.8,1.77,1.79C225.46,59.2,224.67,60,223.69,60 M235.65,46.78c-0.98,0-1.77-0.8-1.77-1.79
				c0-0.99,0.79-1.79,1.77-1.79c0.98,0,1.77,0.8,1.77,1.79C237.42,45.97,236.63,46.78,235.65,46.78"/>
		</defs>
		<clipPath id="SVGID_00000133509899304341666060000004936028724460933510_">
			<use xlink:href="#SVGID_00000082352729834921244460000015824838292868652418_"  style="overflow:visible;"/>
		</clipPath>
		<g style="clip-path:url(#SVGID_00000133509899304341666060000004936028724460933510_);">
			<defs>
				<rect id="SVGID_00000070830930010287599940000002906162423333385385_" x="-137.75" y="-571.51" width="1280" height="1071"/>
			</defs>
			<clipPath id="SVGID_00000159451600529040563570000012496618077932019863_">
				<use xlink:href="#SVGID_00000070830930010287599940000002906162423333385385_"  style="overflow:visible;"/>
			</clipPath>
		</g>
	</g>
</g>
<g>
	<g>
		<defs>
			<path id="SVGID_00000103251104985212742440000013392569545182364326_" d="M340.87,102.78c-0.06,0-0.12,0-0.17-0.01l-0.31-0.03
				c-0.41-0.04-0.78-0.24-1.03-0.55c-0.25-0.31-0.37-0.71-0.33-1.1c1.54-13.06,8.92-21.57,14.83-26.4
				c6.27-5.12,12.34-7.33,12.6-7.42c0.39-0.14,0.81-0.12,1.19,0.05c0.37,0.17,0.66,0.47,0.8,0.85l0.1,0.28
				c0.28,0.77-0.13,1.62-0.92,1.9c-0.23,0.08-5.74,2.08-11.59,6.86c-5.44,4.45-12.22,12.26-13.64,24.25
				C342.31,102.22,341.65,102.78,340.87,102.78"/>
		</defs>
		<clipPath id="SVGID_00000039816362283886102050000006097947779007216562_">
			<use xlink:href="#SVGID_00000103251104985212742440000013392569545182364326_"  style="overflow:visible;"/>
		</clipPath>
		<g style="clip-path:url(#SVGID_00000039816362283886102050000006097947779007216562_);">
			<defs>
				<rect id="SVGID_00000103972723098180171740000011445361822523982735_" x="-171.98" y="-570.83" width="1280" height="1071"/>
			</defs>
			<clipPath id="SVGID_00000080927236117847043160000012769010927932027802_">
				<use xlink:href="#SVGID_00000103972723098180171740000011445361822523982735_"  style="overflow:visible;"/>
			</clipPath>
		</g>
	</g>
	<g>
		<g>
			<defs>
				<path id="SVGID_00000060723431160173034240000015665845829385080729_" d="M359.45,96.5c-5.26,0-10.99-0.92-17.07-2.77
					c-0.41-0.12-0.74-0.41-0.93-0.78c-0.29-0.59-7.01-14.6-0.07-27.09c4.43-7.98,11.88-11.46,19.09-14.83
					c5.94-2.78,11.56-5.4,15.29-10.38c2.2-2.94,2.46-8.07,2.47-8.12c0.03-0.6,0.42-1.12,1-1.33c0.58-0.21,1.23-0.06,1.65,0.37
					c0.65,0.67,15.9,16.62,9.87,40.96c-2.25,9.09-7.32,16.03-14.67,20.06C371.33,95.19,365.72,96.5,359.45,96.5 M343.97,91.08
					c12.19,3.59,22.75,3.21,30.58-1.09c6.59-3.62,11.15-9.9,13.2-18.16c4.27-17.23-3.09-30.21-6.96-35.55
					c-0.42,1.94-1.18,4.3-2.55,6.13c-4.19,5.58-10.42,8.5-16.44,11.31c-7.08,3.31-13.76,6.43-17.71,13.56
					C338.65,77.07,342.84,88.41,343.97,91.08"/>
			</defs>
			<clipPath id="SVGID_00000075131946852071629880000000365991734074182050_">
				<use xlink:href="#SVGID_00000060723431160173034240000015665845829385080729_"  style="overflow:visible;"/>
			</clipPath>
			<g style="clip-path:url(#SVGID_00000075131946852071629880000000365991734074182050_);">
				<defs>
					<rect id="SVGID_00000063614037764208321740000017029015149506123195_" x="-171.98" y="-570.83" width="1280" height="1071"/>
				</defs>
				<clipPath id="SVGID_00000177468608314869348120000003334739371083053984_">
					<use xlink:href="#SVGID_00000063614037764208321740000017029015149506123195_"  style="overflow:visible;"/>
				</clipPath>
			</g>
		</g>
		<g>
			<defs>
				<path id="SVGID_00000103226779494724143450000000377991893136597901_" d="M344.35,48.09c-1.27,0-2.31-1-2.31-2.24
					c0-1.24,1.03-2.24,2.31-2.24c1.27,0,2.31,1,2.31,2.24C346.66,47.09,345.62,48.09,344.35,48.09 M344.35,45.1
					c-0.42,0-0.77,0.33-0.77,0.75s0.35,0.75,0.77,0.75s0.77-0.33,0.77-0.75S344.77,45.1,344.35,45.1"/>
			</defs>
			<clipPath id="SVGID_00000176741987086479506730000003008120506442588846_">
				<use xlink:href="#SVGID_00000103226779494724143450000000377991893136597901_"  style="overflow:visible;"/>
			</clipPath>
			<g style="clip-path:url(#SVGID_00000176741987086479506730000003008120506442588846_);">
				<defs>
					<rect id="SVGID_00000161632410136568033400000009097321711885309314_" x="-171.98" y="-570.83" width="1280" height="1071"/>
				</defs>
				<clipPath id="SVGID_00000126302328003486311230000001635773402661374098_">
					<use xlink:href="#SVGID_00000161632410136568033400000009097321711885309314_"  style="overflow:visible;"/>
				</clipPath>
			</g>
		</g>
		<g>
			<defs>
				<path id="SVGID_00000021805608073538634290000015782439884594546868_" d="M365.32,42.31c-1.7,0-3.08-1.34-3.08-2.99
					c0-1.65,1.38-2.99,3.08-2.99c1.7,0,3.08,1.34,3.08,2.99C368.4,40.97,367.02,42.31,365.32,42.31z"/>
			</defs>
			<clipPath id="SVGID_00000111881064952491602200000007167537978363498896_">
				<use xlink:href="#SVGID_00000021805608073538634290000015782439884594546868_"  style="overflow:visible;"/>
			</clipPath>
			<g style="clip-path:url(#SVGID_00000111881064952491602200000007167537978363498896_);">
				<defs>
					<rect id="SVGID_00000031923431548408171770000006443130998444567985_" x="-171.98" y="-570.83" width="1280" height="1071"/>
				</defs>
				<clipPath id="SVGID_00000178912712197546005290000004043886117643815084_">
					<use xlink:href="#SVGID_00000031923431548408171770000006443130998444567985_"  style="overflow:visible;"/>
				</clipPath>
			</g>
		</g>
		<g>
			<defs>
				<path id="SVGID_00000129169575673985116270000007198665522601771188_" d="M353.2,38.56c-2.12,0-3.85-1.67-3.85-3.73
					c0-2.06,1.73-3.73,3.85-3.73s3.85,1.67,3.85,3.73C357.05,36.88,355.32,38.56,353.2,38.56 M353.2,34.08
					c-0.42,0-0.77,0.33-0.77,0.75c0,0.41,0.35,0.75,0.77,0.75c0.42,0,0.77-0.33,0.77-0.75C353.97,34.41,353.62,34.08,353.2,34.08"/>
			</defs>
			<clipPath id="SVGID_00000017478778193477962260000007247057388397701529_">
				<use xlink:href="#SVGID_00000129169575673985116270000007198665522601771188_"  style="overflow:visible;"/>
			</clipPath>
			<g style="clip-path:url(#SVGID_00000017478778193477962260000007247057388397701529_);">
				<defs>
					<rect id="SVGID_00000025412721194098360910000001750863873520935820_" x="-171.98" y="-570.83" width="1280" height="1071"/>
				</defs>
				<clipPath id="SVGID_00000044161517651781503710000014300297107944649396_">
					<use xlink:href="#SVGID_00000025412721194098360910000001750863873520935820_"  style="overflow:visible;"/>
				</clipPath>
			</g>
		</g>
	</g>
</g>
<g>
	<g>
		<defs>
			<path id="SVGID_00000015347106412187829970000016904230185431096745_" d="M547.56,80.09h-16.33c-0.42-0.19-0.93-0.22-1.37-0.09
				c-0.04,0.02-0.06,0.06-0.1,0.09h-28.99c0,0-0.06-0.06-0.1-0.09c-0.44-0.15-0.95-0.09-1.37,0.09h-16.33
				c-0.76,0-1.55-0.76-1.55-1.52c0-1,0.76-1.52,1.55-1.52h64.59c0.76,0,1.55,0.5,1.55,1.52C549.11,79.32,548.34,80.09,547.56,80.09z
				 M506.02,41.15v1.56c0,0.76,0.76,1.52,1.55,1.52h15.42c0.76,0,1.55-0.76,1.55-1.52v-1.56h21.49v32.88h-61.48V41.15H506.02z
				 M521.44,38.16v1.39c0,0-0.02,0.06-0.02,0.11c0,0.04,0,0.06,0.02,0.09v1.45h-12.33v-1.45c0,0,0.02-0.06,0.02-0.09
				c0-0.04,0-0.07-0.02-0.11v-1.39H521.44z M549.07,74.29V39.66c0-1-0.76-1.51-1.55-1.51h-23.01v-1.52c0-1-0.76-1.52-1.55-1.52
				h-7.79v-4.39c0-0.98-0.74-1.49-1.47-1.49c-0.73,0-1.47,0.5-1.47,1.49v4.4h-4.68c-0.76,0-1.55,0.5-1.55,1.52v1.52H483
				c-0.76,0-1.55,0.5-1.55,1.51v34.6c-1.81,0.61-3.11,2.29-3.11,4.27c0,2.53,2.04,4.55,4.62,4.55h14.45
				c-1.16,2.29-3.47,6.76-8,15.61c-0.52,0.74-0.25,1.75,0.52,1.99c0.25,0,0.52,0.24,0.76,0.24c0.52,0,1.03-0.5,1.28-1
				c0,0,0.02-0.06,8.64-16.86h11.64v16.35c0,0.74,0.74,1.49,1.47,1.49c0.73,0,1.47-0.74,1.47-1.49V83.1h14.75
				c0.86,1.69,3.05,5.97,8.64,16.86c0.25,0.5,0.76,1,1.28,1c0.25,0,0.52-0.24,0.76-0.24c0.76-0.24,1.03-1.25,0.52-1.99
				c0,0-0.02-0.04-8-15.61h14.45c2.56,0,4.62-2.03,4.62-4.55c0-2.01-1.3-3.68-3.11-4.27H549.07z"/>
		</defs>
		<clipPath id="SVGID_00000115474496229844042970000008307077226837636752_">
			<use xlink:href="#SVGID_00000015347106412187829970000016904230185431096745_"  style="overflow:visible;"/>
		</clipPath>
		<g style="clip-path:url(#SVGID_00000115474496229844042970000008307077226837636752_);">
			<defs>
				<rect id="SVGID_00000099623893025829903410000000932645021529408393_" x="-218.55" y="-573.6" width="1280" height="1071"/>
			</defs>
			<clipPath id="SVGID_00000135675084520151625160000001252158313479469703_">
				<use xlink:href="#SVGID_00000099623893025829903410000000932645021529408393_"  style="overflow:visible;"/>
			</clipPath>
		</g>
	</g>
	<g>
		<defs>
			<path id="SVGID_00000144303602800638484670000007263661028635964297_" d="M515.28,60.4c-0.68,0-1.14-0.44-1.14-1.11
				s0.46-1.11,1.14-1.11c0.68,0,1.14,0.44,1.14,1.11S515.97,60.4,515.28,60.4z M515.28,55.97c-1.94,0-3.42,1.44-3.42,3.33
				c0,1.88,1.48,3.33,3.42,3.33c1.94,0,3.42-1.44,3.42-3.33C518.7,57.41,517.22,55.97,515.28,55.97z M515.28,64.84
				c-3.19,0-5.69-2.44-5.69-5.54s2.5-5.54,5.69-5.54c3.19,0,5.69,2.44,5.69,5.54S518.47,64.84,515.28,64.84z M515.28,51.54
				c-4.44,0-7.97,3.44-7.97,7.76s3.53,7.76,7.97,7.76c4.44,0,7.97-3.44,7.97-7.76S519.72,51.54,515.28,51.54z M515.28,69.27
				c-5.69,0-10.25-4.43-10.25-9.98s4.55-9.98,10.25-9.98c5.69,0,10.25,4.43,10.25,9.98S520.97,69.27,515.28,69.27z M515.28,47.1
				c-6.94,0-12.52,5.43-12.52,12.2s5.58,12.2,12.52,12.2s12.52-5.43,12.52-12.2S522.23,47.1,515.28,47.1z"/>
		</defs>
		<clipPath id="SVGID_00000023275188463635718520000011219331962611774882_">
			<use xlink:href="#SVGID_00000144303602800638484670000007263661028635964297_"  style="overflow:visible;"/>
		</clipPath>
		<g style="clip-path:url(#SVGID_00000023275188463635718520000011219331962611774882_);">
			<defs>
				<rect id="SVGID_00000032609093009203166290000002139895291937901984_" x="-218.55" y="-573.6" width="1280" height="1071"/>
			</defs>
			<clipPath id="SVGID_00000158733777221296171110000011040002227994315935_">
				<use xlink:href="#SVGID_00000032609093009203166290000002139895291937901984_"  style="overflow:visible;"/>
			</clipPath>
		</g>
	</g>
</g>
<g>
	<defs>
		<path id="SVGID_00000171693901142926498570000006640897411894266280_" d="M667.78,80.89V67.44h11.03c1.23,0,2.22-0.98,2.22-2.19
			v-4.6h9c0.04,0,0.1,0,0.17,0c0.73,0,2.74-0.14,4.3-1.59c0.83-0.77,1.82-2.18,1.82-4.57v-7.38c4.3-1.06,7.49-4.89,7.49-9.45
			c0-5.38-4.44-9.75-9.9-9.75c-5.46,0-9.9,4.37-9.9,9.75c0,4.69,3.38,8.62,7.87,9.55v7.28c0,0.65-0.14,1.11-0.41,1.37
			c-0.37,0.36-1.08,0.42-1.25,0.41c-0.05,0-0.09-0.01-0.14-0.01h-9.04v-3.5c0-1.21-0.99-2.19-2.22-2.19h-26.49
			c-1.22,0-2.22,0.98-2.22,2.19v4.26h-9.39c-0.54-0.02-2.77,0.01-4.47,1.58c-0.83,0.77-1.82,2.18-1.82,4.57v7.38
			c-4.29,1.07-7.49,4.89-7.49,9.45c0,5.38,4.44,9.75,9.9,9.75c5.46,0,9.9-4.37,9.9-9.75c0-4.69-3.38-8.62-7.87-9.54v-7.28
			c0-0.65,0.14-1.11,0.4-1.37c0.38-0.36,1.08-0.43,1.26-0.41c0.05,0,0.09,0,0.14,0h9.43v3.84c0,1.21,0.99,2.19,2.22,2.19h11.03
			v13.37c-0.05,0.83-0.18,4.94,2.54,7.85c1.44,1.54,3.36,2.43,5.71,2.64c0.96,3.63,4.31,6.32,8.29,6.32h11.94
			c4.73,0,8.58-3.79,8.58-8.45c0-4.66-3.85-8.45-8.58-8.45h-11.94c-3.93,0-7.24,2.62-8.25,6.19c-1.05-0.16-1.86-0.55-2.46-1.19
			c-1.32-1.4-1.45-3.83-1.39-4.63C667.78,81.01,667.78,80.95,667.78,80.89z M688.44,37.67c0-2.96,2.45-5.38,5.46-5.38
			c3.01,0,5.46,2.41,5.46,5.38c0,2.97-2.45,5.38-5.46,5.38C690.89,43.05,688.44,40.64,688.44,37.67z M642.29,80.02
			c0,2.97-2.45,5.38-5.46,5.38c-3.01,0-5.46-2.41-5.46-5.38c0-2.97,2.45-5.38,5.46-5.38C639.84,74.64,642.29,77.06,642.29,80.02z
			 M654.53,63.07h22.05v-8.1h-22.05V63.07z M679.87,85.09h11.94c2.28,0,4.14,1.83,4.14,4.08c0,2.25-1.86,4.08-4.14,4.08h-11.94
			c-2.28,0-4.14-1.83-4.14-4.08C675.74,86.92,677.59,85.09,679.87,85.09z"/>
	</defs>
	<clipPath id="SVGID_00000031198583569572854350000015018950432996719770_">
		<use xlink:href="#SVGID_00000171693901142926498570000006640897411894266280_"  style="overflow:visible;"/>
	</clipPath>
	<g style="clip-path:url(#SVGID_00000031198583569572854350000015018950432996719770_);">
		<defs>
			<rect id="SVGID_00000096025901125705189300000002355008344875234195_" x="-262.62" y="-579.98" width="1280" height="1071"/>
		</defs>
		<clipPath id="SVGID_00000071539026283037933870000000449214697096163005_">
			<use xlink:href="#SVGID_00000096025901125705189300000002355008344875234195_"  style="overflow:visible;"/>
		</clipPath>
	</g>
</g>
<g>
	<defs>
		<path id="SVGID_00000028324998384222834330000009538319992542831753_" d="M837.72,34.41h-22.28h-22.28
			c-7.52,0-13.65,5.94-13.65,13.24v21.61v21.61c0,7.3,6.12,13.24,13.65,13.24h22.28h22.28c7.52,0,13.64-5.94,13.64-13.24V69.25
			V47.64C851.37,40.34,845.25,34.41,837.72,34.41 M847.08,47.64v19.53h-8.03l-4.31-7.24c-0.38-0.64-1.09-1.04-1.86-1.04
			s-1.47,0.4-1.86,1.04l-4.31,7.24h-9.14V57.11c0-0.74-0.41-1.43-1.07-1.8l-5.32-2.98l5.32-2.98c0.66-0.37,1.07-1.06,1.07-1.8v-8.99
			h20.14C842.88,38.56,847.08,42.64,847.08,47.64 M793.17,38.56h20.14v7.79l-7.46,4.18c-0.66,0.37-1.07,1.06-1.07,1.8
			c0,0.74,0.41,1.43,1.07,1.8l7.46,4.18v8.87h-10.38c-0.77,0-1.47,0.4-1.86,1.04L798,73.38l-3.07-5.16
			c-0.38-0.64-1.09-1.04-1.86-1.04h-9.26V47.64C783.81,42.64,788,38.56,793.17,38.56 M783.81,90.87V71.33h8.03l4.31,7.24
			c0.38,0.64,1.09,1.04,1.86,1.04c0.77,0,1.47-0.4,1.86-1.04l4.31-7.24h9.14v11.1c0,0.74,0.41,1.43,1.07,1.8l3.48,1.95l-3.48,1.95
			c-0.66,0.37-1.07,1.06-1.07,1.8v10.02h-20.14C788,99.95,783.81,95.88,783.81,90.87 M837.72,99.95h-20.14v-8.82l5.62-3.15
			c0.66-0.37,1.07-1.06,1.07-1.8c0-0.74-0.41-1.43-1.07-1.8l-5.62-3.15v-9.9h10.38c0.77,0,1.47-0.4,1.86-1.04l3.07-5.16l3.07,5.16
			c0.38,0.64,1.09,1.04,1.86,1.04h9.26v19.53C847.08,95.88,842.88,99.95,837.72,99.95"/>
	</defs>
	<clipPath id="SVGID_00000095301636940790310190000002704099252043236995_">
		<use xlink:href="#SVGID_00000028324998384222834330000009538319992542831753_"  style="overflow:visible;"/>
	</clipPath>
	<g style="clip-path:url(#SVGID_00000095301636940790310190000002704099252043236995_);">
		<defs>
			<rect id="SVGID_00000181781727799500527840000002956834634503246227_" x="-298.7" y="-571.5" width="1280" height="1071"/>
		</defs>
		<clipPath id="SVGID_00000039096288524759100300000013610446792534854320_">
			<use xlink:href="#SVGID_00000181781727799500527840000002956834634503246227_"  style="overflow:visible;"/>
		</clipPath>
	</g>
</g>
</svg>
