<?xml version="1.0" encoding="utf-8"?>
<!-- Generator: Adobe Illustrator 26.2.1, SVG Export Plug-In . SVG Version: 6.00 Build 0)  -->
<svg version="1.1" id="Layer_1" xmlns="http://www.w3.org/2000/svg" xmlns:xlink="http://www.w3.org/1999/xlink" x="0px" y="0px"
	 viewBox="0 0 130.08 129.71" style="enable-background:new 0 0 130.08 129.71;" xml:space="preserve">
<style type="text/css">
	.st0{clip-path:url(#SVGID_00000013871541424587745100000014408942372596839316_);}
	.st1{clip-path:url(#SVGID_00000111878121448554724300000007052407925678246821_);fill:#7500C0;}
	.st2{clip-path:url(#SVGID_00000033352382411659851970000008671488401323644319_);}
	.st3{clip-path:url(#SVGID_00000041275919625805905880000013577367292752294276_);fill:#7500C0;}
	.st4{clip-path:url(#SVGID_00000038371601219524293600000001910578399784999051_);}
	.st5{clip-path:url(#SVGID_00000099631452119186088280000011855474503698165653_);fill:#7500C0;}
	.st6{clip-path:url(#SVGID_00000137109648225410999570000015301689370435050379_);}
	.st7{clip-path:url(#SVGID_00000141414185466519593830000017868435501750452926_);fill:#7500C0;}
	.st8{clip-path:url(#SVGID_00000088844603048926467340000003073671552978346943_);}
	.st9{clip-path:url(#SVGID_00000113354878424037015960000006183213552270871714_);fill:#7500C0;}
	.st10{clip-path:url(#SVGID_00000032629953187410003840000011954923757539467145_);}
	.st11{clip-path:url(#SVGID_00000148627930867182733660000001822004509828586399_);fill:#7500C0;}
	.st12{clip-path:url(#SVGID_00000104669731233911290810000001175611594959752120_);}
	.st13{clip-path:url(#SVGID_00000114050916981990616080000016646928040495937194_);fill:#7500C0;}
	.st14{clip-path:url(#SVGID_00000174571158212932668290000016510909202418089113_);}
	.st15{clip-path:url(#SVGID_00000140735842252705647950000001951856801321460363_);fill:#7500C0;}
	.st16{clip-path:url(#SVGID_00000041253799314817878140000001450841622514114710_);}
	.st17{clip-path:url(#SVGID_00000143580578200109702360000005186544212771093923_);fill:#7500C0;}
	.st18{clip-path:url(#SVGID_00000121253859167046979700000002204977497701271982_);}
	.st19{clip-path:url(#SVGID_00000068642020872063173420000017041649408764887476_);fill:#7500C0;}
	.st20{clip-path:url(#SVGID_00000170264607386171014030000000585883882808944538_);}
	.st21{clip-path:url(#SVGID_00000107570415243305994060000018317698139436995979_);fill:#7500C0;}
	.st22{clip-path:url(#SVGID_00000086671526166445014480000017881346923792189320_);}
	.st23{clip-path:url(#SVGID_00000105410552182371882690000009257480889669553821_);fill:#7500C0;}
	.st24{clip-path:url(#SVGID_00000066479561217910698830000013551229900431574918_);}
	.st25{clip-path:url(#SVGID_00000103266219799726587910000015319833776337514370_);fill:#7500C0;}
	.st26{clip-path:url(#SVGID_00000026863693772056662160000001791464222791256499_);}
	.st27{clip-path:url(#SVGID_00000021841954521127659660000006554712037879258527_);fill:#7500C0;}
	.st28{clip-path:url(#SVGID_00000041286513158037732690000013987753695415235459_);}
	.st29{clip-path:url(#SVGID_00000057123776254008109100000018252592547221682098_);fill:#7500C0;}
	.st30{clip-path:url(#SVGID_00000165939811342412319540000007506333308975040439_);}
	.st31{clip-path:url(#SVGID_00000060007731547943944830000017321329842118259898_);fill:#7500C0;}
	.st32{clip-path:url(#SVGID_00000154409620991074802790000005892215123328550292_);}
	.st33{clip-path:url(#SVGID_00000049906171159705958990000009739123575099104145_);fill:#7500C0;}
	.st34{clip-path:url(#SVGID_00000052064272616278167590000010042917511187663528_);}
	.st35{clip-path:url(#SVGID_00000003783732641944155790000016118585342357818766_);fill:#7500C0;}
	.st36{clip-path:url(#SVGID_00000003097550748705339930000001223056317323399324_);}
	.st37{clip-path:url(#SVGID_00000054958715529904301330000017833456035971546286_);fill:#7500C0;}
	.st38{clip-path:url(#SVGID_00000178174006490941224550000002337612723818203025_);}
	.st39{clip-path:url(#SVGID_00000070838493501366346780000002254239864964265636_);fill:#7500C0;}
	.st40{clip-path:url(#SVGID_00000008135476625268236870000003321446216474162100_);}
	.st41{clip-path:url(#SVGID_00000162330299575507313510000016528589164964874922_);fill:#7500C0;}
	.st42{clip-path:url(#SVGID_00000012457051451648965590000017262773173904986291_);}
	.st43{clip-path:url(#SVGID_00000020356312858213702730000011433931539561359501_);fill:#7500C0;}
	.st44{clip-path:url(#SVGID_00000035531787485018151760000009300582855833717908_);}
	.st45{clip-path:url(#SVGID_00000091014909062343915190000007914130980612050110_);fill:#7500C0;}
</style>
<g>
	<g>
		<defs>
			<path id="SVGID_1_" d="M-264.36,94.92V31.68c0-1.19-0.94-2.15-2.1-2.15c-1.16,0-2.1,0.96-2.1,2.15v65.39
				c0,1.19,0.94,2.15,2.1,2.15h64.78v-4.31L-264.36,94.92z"/>
		</defs>
		<clipPath id="SVGID_00000064323480277113455400000011524550474304167073_">
			<use xlink:href="#SVGID_1_"  style="overflow:visible;"/>
		</clipPath>
		<g style="clip-path:url(#SVGID_00000064323480277113455400000011524550474304167073_);">
			<defs>
				<rect id="SVGID_00000121259171485177310960000009387452354506329230_" x="-400.47" y="-573.4" width="1280" height="1071"/>
			</defs>
			<clipPath id="SVGID_00000058572386691836608800000008982486142680295304_">
				<use xlink:href="#SVGID_00000121259171485177310960000009387452354506329230_"  style="overflow:visible;"/>
			</clipPath>
		</g>
	</g>
	<g>
		<defs>
			<path id="SVGID_00000075859718572901948570000012095378324525747369_" d="M-254.08,89.01c1.16,0,2.1-0.96,2.1-2.15V66.39
				c0-1.19-0.94-2.15-2.1-2.15c-1.16,0-2.1,0.96-2.1,2.15v20.47C-256.18,88.05-255.24,89.01-254.08,89.01"/>
		</defs>
		<clipPath id="SVGID_00000017480556450957318860000004556016920154457000_">
			<use xlink:href="#SVGID_00000075859718572901948570000012095378324525747369_"  style="overflow:visible;"/>
		</clipPath>
		<g style="clip-path:url(#SVGID_00000017480556450957318860000004556016920154457000_);">
			<defs>
				<rect id="SVGID_00000169547111358338379180000016101190993929459595_" x="-400.47" y="-573.4" width="1280" height="1071"/>
			</defs>
			<clipPath id="SVGID_00000119083348839103784110000004333819294113467313_">
				<use xlink:href="#SVGID_00000169547111358338379180000016101190993929459595_"  style="overflow:visible;"/>
			</clipPath>
		</g>
	</g>
	<g>
		<defs>
			<path id="SVGID_00000181765434295175428620000007736968799491882425_" d="M-243.41,89.01c1.16,0,2.1-0.96,2.1-2.15V62.38
				c0-1.19-0.94-2.15-2.1-2.15c-1.16,0-2.1,0.96-2.1,2.15v24.48C-245.51,88.05-244.57,89.01-243.41,89.01"/>
		</defs>
		<clipPath id="SVGID_00000147930968950099653810000010331030958314419089_">
			<use xlink:href="#SVGID_00000181765434295175428620000007736968799491882425_"  style="overflow:visible;"/>
		</clipPath>
		<g style="clip-path:url(#SVGID_00000147930968950099653810000010331030958314419089_);">
			<defs>
				<rect id="SVGID_00000028321270559993480770000014308005159341397665_" x="-400.47" y="-573.4" width="1280" height="1071"/>
			</defs>
			<clipPath id="SVGID_00000076573384784681610600000017008637295460542613_">
				<use xlink:href="#SVGID_00000028321270559993480770000014308005159341397665_"  style="overflow:visible;"/>
			</clipPath>
		</g>
	</g>
	<g>
		<defs>
			<path id="SVGID_00000046297798128212263940000005441921152692046218_" d="M-222.07,89.01c1.16,0,2.1-0.96,2.1-2.15V64.93
				c0-1.19-0.94-2.15-2.1-2.15c-1.16,0-2.1,0.96-2.1,2.15v21.93C-224.18,88.05-223.23,89.01-222.07,89.01"/>
		</defs>
		<clipPath id="SVGID_00000167380367805164537130000001036703172998564528_">
			<use xlink:href="#SVGID_00000046297798128212263940000005441921152692046218_"  style="overflow:visible;"/>
		</clipPath>
		<g style="clip-path:url(#SVGID_00000167380367805164537130000001036703172998564528_);">
			<defs>
				<rect id="SVGID_00000136374771002524510390000008708376050146913680_" x="-400.47" y="-573.4" width="1280" height="1071"/>
			</defs>
			<clipPath id="SVGID_00000123438772806031326480000018178609152571953595_">
				<use xlink:href="#SVGID_00000136374771002524510390000008708376050146913680_"  style="overflow:visible;"/>
			</clipPath>
		</g>
	</g>
	<g>
		<defs>
			<path id="SVGID_00000155144253012787179680000016129337181005024941_" d="M-232.74,89.01c1.16,0,2.1-0.96,2.1-2.15V60.44
				c0-1.19-0.94-2.15-2.1-2.15c-1.16,0-2.1,0.96-2.1,2.15v26.42C-234.85,88.05-233.9,89.01-232.74,89.01"/>
		</defs>
		<clipPath id="SVGID_00000027606738234698347430000002485275488312074137_">
			<use xlink:href="#SVGID_00000155144253012787179680000016129337181005024941_"  style="overflow:visible;"/>
		</clipPath>
		<g style="clip-path:url(#SVGID_00000027606738234698347430000002485275488312074137_);">
			<defs>
				<rect id="SVGID_00000010284339337402722880000014299361146617421485_" x="-400.47" y="-573.4" width="1280" height="1071"/>
			</defs>
			<clipPath id="SVGID_00000018196631665071342910000000696532010744179626_">
				<use xlink:href="#SVGID_00000010284339337402722880000014299361146617421485_"  style="overflow:visible;"/>
			</clipPath>
		</g>
	</g>
	<g>
		<defs>
			<path id="SVGID_00000181795260727022851710000010682414127298508195_" d="M-211.41,89.01c1.16,0,2.1-0.96,2.1-2.15V69.41
				c0-1.19-0.94-2.15-2.1-2.15s-2.1,0.96-2.1,2.15v17.45C-213.51,88.05-212.57,89.01-211.41,89.01"/>
		</defs>
		<clipPath id="SVGID_00000152236428933807523280000013063077426191434629_">
			<use xlink:href="#SVGID_00000181795260727022851710000010682414127298508195_"  style="overflow:visible;"/>
		</clipPath>
		<g style="clip-path:url(#SVGID_00000152236428933807523280000013063077426191434629_);">
			<defs>
				<rect id="SVGID_00000065075734656516929710000000677321481276478890_" x="-400.47" y="-573.4" width="1280" height="1071"/>
			</defs>
			<clipPath id="SVGID_00000183250502530505137190000003528353760311175581_">
				<use xlink:href="#SVGID_00000065075734656516929710000000677321481276478890_"  style="overflow:visible;"/>
			</clipPath>
		</g>
	</g>
	<g>
		<defs>
			<path id="SVGID_00000061470510561745135760000012705739080856491167_" d="M-243.41,57.7c1.16,0,2.1-0.96,2.1-2.15V42.88
				c0-1.19-0.94-2.15-2.1-2.15c-1.16,0-2.1,0.96-2.1,2.15v12.67C-245.51,56.74-244.57,57.7-243.41,57.7"/>
		</defs>
		<clipPath id="SVGID_00000097478446380370861630000013052376167309453223_">
			<use xlink:href="#SVGID_00000061470510561745135760000012705739080856491167_"  style="overflow:visible;"/>
		</clipPath>
		<g style="clip-path:url(#SVGID_00000097478446380370861630000013052376167309453223_);">
			<defs>
				<rect id="SVGID_00000150072603668720852630000012025864716559202947_" x="-400.47" y="-573.4" width="1280" height="1071"/>
			</defs>
			<clipPath id="SVGID_00000149347423628276691760000001873058059719390132_">
				<use xlink:href="#SVGID_00000150072603668720852630000012025864716559202947_"  style="overflow:visible;"/>
			</clipPath>
		</g>
	</g>
	<g>
		<defs>
			<path id="SVGID_00000153703710452384732210000010690280037596097692_" d="M-254.08,61.66c1.16,0,2.1-0.96,2.1-2.15v-14.9
				c0-1.19-0.94-2.15-2.1-2.15c-1.16,0-2.1,0.96-2.1,2.15v14.9C-256.18,60.69-255.24,61.66-254.08,61.66"/>
		</defs>
		<clipPath id="SVGID_00000019675691422781734700000007380546652925369005_">
			<use xlink:href="#SVGID_00000153703710452384732210000010690280037596097692_"  style="overflow:visible;"/>
		</clipPath>
		<g style="clip-path:url(#SVGID_00000019675691422781734700000007380546652925369005_);">
			<defs>
				<rect id="SVGID_00000094611684610465459300000005941226695036648605_" x="-400.47" y="-573.4" width="1280" height="1071"/>
			</defs>
			<clipPath id="SVGID_00000159457366860077726560000011621665234248734126_">
				<use xlink:href="#SVGID_00000094611684610465459300000005941226695036648605_"  style="overflow:visible;"/>
			</clipPath>
		</g>
	</g>
	<g>
		<defs>
			<path id="SVGID_00000078005614756929806460000013785180965584403345_" d="M-222.07,60.27c1.16,0,2.1-0.96,2.1-2.15v-5.94
				c0-1.19-0.94-2.15-2.1-2.15c-1.16,0-2.1,0.96-2.1,2.15v5.94C-224.18,59.31-223.23,60.27-222.07,60.27"/>
		</defs>
		<clipPath id="SVGID_00000160159326293861346810000008105398718780607376_">
			<use xlink:href="#SVGID_00000078005614756929806460000013785180965584403345_"  style="overflow:visible;"/>
		</clipPath>
		<g style="clip-path:url(#SVGID_00000160159326293861346810000008105398718780607376_);">
			<defs>
				<rect id="SVGID_00000037660609951162849410000012828026086943384227_" x="-400.47" y="-573.4" width="1280" height="1071"/>
			</defs>
			<clipPath id="SVGID_00000036941980301519168370000000306016883613934995_">
				<use xlink:href="#SVGID_00000037660609951162849410000012828026086943384227_"  style="overflow:visible;"/>
			</clipPath>
		</g>
	</g>
	<g>
		<defs>
			<path id="SVGID_00000069397802800778209370000008315726813122559139_" d="M-211.41,64.48c1.16,0,2.1-0.96,2.1-2.15v-3.39
				c0-1.19-0.94-2.15-2.1-2.15s-2.1,0.96-2.1,2.15v3.39C-213.51,63.52-212.57,64.48-211.41,64.48"/>
		</defs>
		<clipPath id="SVGID_00000181804824236155869050000007854240572120467613_">
			<use xlink:href="#SVGID_00000069397802800778209370000008315726813122559139_"  style="overflow:visible;"/>
		</clipPath>
		<g style="clip-path:url(#SVGID_00000181804824236155869050000007854240572120467613_);">
			<defs>
				<rect id="SVGID_00000033355207360132050860000012447866667995553172_" x="-400.47" y="-573.4" width="1280" height="1071"/>
			</defs>
			<clipPath id="SVGID_00000093890026582215388480000005138479636657674931_">
				<use xlink:href="#SVGID_00000033355207360132050860000012447866667995553172_"  style="overflow:visible;"/>
			</clipPath>
		</g>
	</g>
	<g>
		<defs>
			<path id="SVGID_00000016777327342507912570000015895174942164334263_" d="M-232.74,55.79c1.16,0,2.1-0.96,2.1-2.15V33.65
				c0-1.19-0.94-2.15-2.1-2.15c-1.16,0-2.1,0.97-2.1,2.15v19.98C-234.85,54.82-233.9,55.79-232.74,55.79"/>
		</defs>
		<clipPath id="SVGID_00000144296616967147935970000009483461410427626140_">
			<use xlink:href="#SVGID_00000016777327342507912570000015895174942164334263_"  style="overflow:visible;"/>
		</clipPath>
		<g style="clip-path:url(#SVGID_00000144296616967147935970000009483461410427626140_);">
			<defs>
				<rect id="SVGID_00000106123259892944282180000004356452923278837379_" x="-400.47" y="-573.4" width="1280" height="1071"/>
			</defs>
			<clipPath id="SVGID_00000170959967517445966650000007312484872605475736_">
				<use xlink:href="#SVGID_00000106123259892944282180000004356452923278837379_"  style="overflow:visible;"/>
			</clipPath>
		</g>
	</g>
</g>
<g>
	<g>
		<defs>
			<path id="SVGID_00000062166908913791364770000013535781575302277550_" d="M-60.17,32.41h-55.45c-3.69,0-6.71,3.06-6.71,6.79
				v56.11c0,3.74,3.02,6.79,6.71,6.79h55.45c3.69,0,6.71-3.06,6.71-6.79V39.2C-53.46,35.46-56.48,32.41-60.17,32.41z M-57.31,95.31
				c0,1.59-1.28,2.89-2.86,2.89h-55.45c-1.58,0-2.86-1.3-2.86-2.89V39.2c0-1.6,1.28-2.89,2.86-2.89h55.45c1.58,0,2.86,1.3,2.86,2.89
				V95.31z"/>
		</defs>
		<clipPath id="SVGID_00000056421523833184546510000007210694179129623979_">
			<use xlink:href="#SVGID_00000062166908913791364770000013535781575302277550_"  style="overflow:visible;"/>
		</clipPath>
		<g style="clip-path:url(#SVGID_00000056421523833184546510000007210694179129623979_);">
			<defs>
				<rect id="SVGID_00000001654807467472453730000007301393037655267768_" x="-437.91" y="-571.51" width="1280" height="1071"/>
			</defs>
			<clipPath id="SVGID_00000069357160517535825210000008879562319637975703_">
				<use xlink:href="#SVGID_00000001654807467472453730000007301393037655267768_"  style="overflow:visible;"/>
			</clipPath>
		</g>
	</g>
	<g>
		<defs>
			<path id="SVGID_00000114072753580604376300000000268036490229416857_" d="M-64.51,60.55c-2.9,0-5.28,2.39-5.29,5.32
				c-0.01,1.02,0.28,1.98,0.79,2.83l-2.48,3.09c-0.55-0.2-1.14-0.33-1.76-0.33c-2.19,0-4.08,1.36-4.88,3.28l-9.6-0.57
				c-0.64-2.23-2.65-3.87-5.06-3.87c-2.92,0-5.29,2.4-5.29,5.36c0,0.62,0.13,1.2,0.32,1.75l-8.83,7.16
				c-0.81-0.51-1.76-0.82-2.78-0.82c-2.92,0-5.29,2.4-5.29,5.36c0,2.96,2.37,5.36,5.29,5.36c2.92,0,5.29-2.41,5.29-5.36
				c0-0.62-0.12-1.2-0.31-1.75l8.83-7.16c0.81,0.51,1.76,0.82,2.78,0.82c2.19,0,4.08-1.36,4.88-3.29l9.6,0.57
				c0.64,2.23,2.65,3.87,5.06,3.87c2.92,0,5.29-2.4,5.29-5.36c0-1.02-0.3-1.97-0.79-2.79l2.48-3.09c0.55,0.2,1.13,0.32,1.73,0.33
				h0.04c2.9,0,5.28-2.39,5.29-5.32c0.01-1.43-0.53-2.78-1.52-3.8C-61.73,61.13-63.06,60.56-64.51,60.55 M-109.39,90.91
				c-0.98,0-1.77-0.8-1.77-1.79c0-0.99,0.79-1.79,1.77-1.79c0.98,0,1.77,0.8,1.77,1.79C-107.62,90.11-108.42,90.91-109.39,90.91
				 M-92.8,77.46c-0.98,0-1.77-0.8-1.77-1.79c0-0.99,0.79-1.79,1.77-1.79c0.98,0,1.77,0.8,1.77,1.79
				C-91.03,76.66-91.83,77.46-92.8,77.46 M-73.26,78.62c-0.98,0-1.77-0.8-1.77-1.79s0.79-1.79,1.77-1.79c0.98,0,1.77,0.8,1.77,1.79
				S-72.28,78.62-73.26,78.62 M-64.51,67.71v1.78l-0.01-1.78c-0.47,0-0.92-0.19-1.25-0.53c-0.33-0.34-0.51-0.79-0.51-1.27
				c0.01-0.98,0.8-1.78,1.78-1.78c0.47,0,0.92,0.19,1.25,0.53c0.33,0.34,0.51,0.79,0.51,1.27C-62.74,66.91-63.54,67.71-64.51,67.71"
				/>
		</defs>
		<clipPath id="SVGID_00000057133181271098304750000012051619542052686516_">
			<use xlink:href="#SVGID_00000114072753580604376300000000268036490229416857_"  style="overflow:visible;"/>
		</clipPath>
		<g style="clip-path:url(#SVGID_00000057133181271098304750000012051619542052686516_);">
			<defs>
				<rect id="SVGID_00000044880498418447068280000010296848393937198730_" x="-437.91" y="-571.51" width="1280" height="1071"/>
			</defs>
			<clipPath id="SVGID_00000159433429094324915430000017250820771074897589_">
				<use xlink:href="#SVGID_00000044880498418447068280000010296848393937198730_"  style="overflow:visible;"/>
			</clipPath>
		</g>
	</g>
	<g>
		<defs>
			<path id="SVGID_00000082352729834921244460000015824838292868652418_" d="M-64.51,39.62c-2.92,0-5.29,2.4-5.29,5.36
				c0,0.88,0.23,1.71,0.61,2.44l-5.37,5.79c-0.59-0.23-1.23-0.37-1.9-0.37c-2.78,0-5.04,2.19-5.25,4.95l-9.46,0.79
				c-0.82-1.87-2.68-3.19-4.83-3.19c-2.92,0-5.29,2.4-5.29,5.36c0,0.89,0.23,1.71,0.61,2.45l-7.61,7.6c-0.67-0.32-1.42-0.5-2.21-0.5
				c-2.92,0-5.29,2.4-5.29,5.36c0,2.96,2.37,5.36,5.29,5.36c2.92,0,5.29-2.4,5.29-5.36c0-0.85-0.22-1.65-0.56-2.36l7.65-7.64
				c0.65,0.29,1.37,0.46,2.12,0.46c2.44,0,4.48-1.69,5.09-3.97l10.14-0.85c0.96,1.37,2.53,2.27,4.31,2.27
				c2.92,0,5.29-2.41,5.29-5.36c0-0.97-0.28-1.87-0.72-2.66l5.26-5.67c0.65,0.29,1.37,0.46,2.13,0.46c2.92,0,5.29-2.41,5.29-5.36
				C-59.22,42.03-61.59,39.62-64.51,39.62 M-110.51,77.46c-0.98,0-1.77-0.8-1.77-1.79s0.79-1.79,1.77-1.79
				c0.98,0,1.77,0.8,1.77,1.79S-109.54,77.46-110.51,77.46 M-96.02,62.55c-0.98,0-1.77-0.8-1.77-1.79s0.79-1.79,1.77-1.79
				c0.98,0,1.77,0.8,1.77,1.79S-95.04,62.55-96.02,62.55 M-76.47,60c-0.98,0-1.77-0.8-1.77-1.79c0-0.99,0.79-1.79,1.77-1.79
				c0.98,0,1.77,0.8,1.77,1.79C-74.7,59.2-75.49,60-76.47,60 M-64.51,46.78c-0.98,0-1.77-0.8-1.77-1.79c0-0.99,0.79-1.79,1.77-1.79
				c0.98,0,1.77,0.8,1.77,1.79C-62.74,45.97-63.53,46.78-64.51,46.78"/>
		</defs>
		<clipPath id="SVGID_00000032631855382587961570000014235077231539451015_">
			<use xlink:href="#SVGID_00000082352729834921244460000015824838292868652418_"  style="overflow:visible;"/>
		</clipPath>
		<g style="clip-path:url(#SVGID_00000032631855382587961570000014235077231539451015_);">
			<defs>
				<rect id="SVGID_00000070830930010287599940000002906162423333385385_" x="-437.91" y="-571.51" width="1280" height="1071"/>
			</defs>
			<clipPath id="SVGID_00000123433447467110451100000003145830724304685757_">
				<use xlink:href="#SVGID_00000070830930010287599940000002906162423333385385_"  style="overflow:visible;"/>
			</clipPath>
		</g>
	</g>
</g>
<g>
	<g>
		<defs>
			<path id="SVGID_00000103251104985212742440000013392569545182364326_" d="M40.71,102.78c-0.06,0-0.12,0-0.17-0.01l-0.31-0.03
				c-0.41-0.04-0.78-0.24-1.03-0.55c-0.25-0.31-0.37-0.71-0.33-1.1c1.54-13.06,8.92-21.57,14.83-26.4
				c6.27-5.12,12.34-7.33,12.6-7.42c0.39-0.14,0.81-0.12,1.19,0.05c0.37,0.17,0.66,0.47,0.8,0.85l0.1,0.28
				c0.28,0.77-0.13,1.62-0.92,1.9c-0.23,0.08-5.74,2.08-11.59,6.86c-5.44,4.45-12.22,12.26-13.64,24.25
				C42.15,102.22,41.48,102.78,40.71,102.78"/>
		</defs>
		<clipPath id="SVGID_00000113350488425693461550000006090153544028325562_">
			<use xlink:href="#SVGID_00000103251104985212742440000013392569545182364326_"  style="overflow:visible;"/>
		</clipPath>
		<g style="clip-path:url(#SVGID_00000113350488425693461550000006090153544028325562_);">
			<defs>
				<rect id="SVGID_00000103972723098180171740000011445361822523982735_" x="-472.14" y="-570.83" width="1280" height="1071"/>
			</defs>
			<clipPath id="SVGID_00000004520686391591973220000012130550556989682344_">
				<use xlink:href="#SVGID_00000103972723098180171740000011445361822523982735_"  style="overflow:visible;"/>
			</clipPath>
			
				<rect x="37.83" y="66.13" style="clip-path:url(#SVGID_00000004520686391591973220000012130550556989682344_);fill:#7500C0;" width="31.84" height="37.65"/>
		</g>
	</g>
	<g>
		<g>
			<defs>
				<path id="SVGID_00000060723431160173034240000015665845829385080729_" d="M59.29,96.5c-5.26,0-10.99-0.92-17.07-2.77
					c-0.41-0.12-0.74-0.41-0.93-0.78c-0.29-0.59-7.01-14.6-0.07-27.09c4.43-7.98,11.88-11.46,19.09-14.83
					c5.94-2.78,11.56-5.4,15.29-10.38c2.2-2.94,2.46-8.07,2.47-8.12c0.03-0.6,0.42-1.12,1-1.33c0.58-0.21,1.23-0.06,1.65,0.37
					c0.65,0.67,15.9,16.62,9.87,40.96c-2.25,9.09-7.32,16.03-14.67,20.06C71.16,95.19,65.56,96.5,59.29,96.5 M43.81,91.08
					C56,94.66,66.56,94.29,74.4,89.99c6.59-3.62,11.15-9.9,13.2-18.16c4.27-17.23-3.09-30.21-6.96-35.55
					c-0.42,1.94-1.18,4.3-2.55,6.13c-4.19,5.58-10.42,8.5-16.44,11.31c-7.08,3.31-13.76,6.43-17.71,13.56
					C38.48,77.07,42.68,88.41,43.81,91.08"/>
			</defs>
			<clipPath id="SVGID_00000041273271485344144630000018286463193838821024_">
				<use xlink:href="#SVGID_00000060723431160173034240000015665845829385080729_"  style="overflow:visible;"/>
			</clipPath>
			<g style="clip-path:url(#SVGID_00000041273271485344144630000018286463193838821024_);">
				<defs>
					<rect id="SVGID_00000063614037764208321740000017029015149506123195_" x="-472.14" y="-570.83" width="1280" height="1071"/>
				</defs>
				<clipPath id="SVGID_00000181068294385621456170000014038013119074580152_">
					<use xlink:href="#SVGID_00000063614037764208321740000017029015149506123195_"  style="overflow:visible;"/>
				</clipPath>
				
					<rect x="33.28" y="29.98" style="clip-path:url(#SVGID_00000181068294385621456170000014038013119074580152_);fill:#7500C0;" width="64.33" height="67.52"/>
			</g>
		</g>
		<g>
			<defs>
				<path id="SVGID_00000103226779494724143450000000377991893136597901_" d="M44.19,48.09c-1.27,0-2.31-1-2.31-2.24
					c0-1.24,1.03-2.24,2.31-2.24c1.27,0,2.31,1,2.31,2.24C46.5,47.09,45.46,48.09,44.19,48.09 M44.19,45.1
					c-0.42,0-0.77,0.33-0.77,0.75s0.35,0.75,0.77,0.75s0.77-0.33,0.77-0.75S44.61,45.1,44.19,45.1"/>
			</defs>
			<clipPath id="SVGID_00000044898933487960606900000013368120130374173330_">
				<use xlink:href="#SVGID_00000103226779494724143450000000377991893136597901_"  style="overflow:visible;"/>
			</clipPath>
			<g style="clip-path:url(#SVGID_00000044898933487960606900000013368120130374173330_);">
				<defs>
					<rect id="SVGID_00000161632410136568033400000009097321711885309314_" x="-472.14" y="-570.83" width="1280" height="1071"/>
				</defs>
				<clipPath id="SVGID_00000018200869384120402940000013117347489642388879_">
					<use xlink:href="#SVGID_00000161632410136568033400000009097321711885309314_"  style="overflow:visible;"/>
				</clipPath>
				
					<rect x="40.88" y="42.61" style="clip-path:url(#SVGID_00000018200869384120402940000013117347489642388879_);fill:#7500C0;" width="6.62" height="6.48"/>
			</g>
		</g>
		<g>
			<defs>
				<path id="SVGID_00000021805608073538634290000015782439884594546868_" d="M65.16,42.31c-1.7,0-3.08-1.34-3.08-2.99
					c0-1.65,1.38-2.99,3.08-2.99c1.7,0,3.08,1.34,3.08,2.99C68.24,40.97,66.86,42.31,65.16,42.31z"/>
			</defs>
			<clipPath id="SVGID_00000029009985719221450700000000052919582463172224_">
				<use xlink:href="#SVGID_00000021805608073538634290000015782439884594546868_"  style="overflow:visible;"/>
			</clipPath>
			<g style="clip-path:url(#SVGID_00000029009985719221450700000000052919582463172224_);">
				<defs>
					<rect id="SVGID_00000031923431548408171770000006443130998444567985_" x="-472.14" y="-570.83" width="1280" height="1071"/>
				</defs>
				<clipPath id="SVGID_00000006684111495614721330000014492009655878928552_">
					<use xlink:href="#SVGID_00000031923431548408171770000006443130998444567985_"  style="overflow:visible;"/>
				</clipPath>
				
					<rect x="61.08" y="35.33" style="clip-path:url(#SVGID_00000006684111495614721330000014492009655878928552_);fill:#7500C0;" width="8.16" height="7.97"/>
			</g>
		</g>
		<g>
			<defs>
				<path id="SVGID_00000129169575673985116270000007198665522601771188_" d="M53.04,38.56c-2.12,0-3.85-1.67-3.85-3.73
					c0-2.06,1.73-3.73,3.85-3.73s3.85,1.67,3.85,3.73C56.89,36.88,55.16,38.56,53.04,38.56 M53.04,34.08
					c-0.42,0-0.77,0.33-0.77,0.75c0,0.41,0.35,0.75,0.77,0.75c0.42,0,0.77-0.33,0.77-0.75C53.81,34.41,53.46,34.08,53.04,34.08"/>
			</defs>
			<clipPath id="SVGID_00000143589082964699486270000005284374322859325107_">
				<use xlink:href="#SVGID_00000129169575673985116270000007198665522601771188_"  style="overflow:visible;"/>
			</clipPath>
			<g style="clip-path:url(#SVGID_00000143589082964699486270000005284374322859325107_);">
				<defs>
					<rect id="SVGID_00000025412721194098360910000001750863873520935820_" x="-472.14" y="-570.83" width="1280" height="1071"/>
				</defs>
				<clipPath id="SVGID_00000039132745394593784800000012973351473898317962_">
					<use xlink:href="#SVGID_00000025412721194098360910000001750863873520935820_"  style="overflow:visible;"/>
				</clipPath>
				
					<rect x="48.19" y="30.09" style="clip-path:url(#SVGID_00000039132745394593784800000012973351473898317962_);fill:#7500C0;" width="9.7" height="9.47"/>
			</g>
		</g>
	</g>
</g>
<g>
	<g>
		<defs>
			<path id="SVGID_00000015347106412187829970000016904230185431096745_" d="M247.4,80.09h-16.33c-0.42-0.19-0.93-0.22-1.37-0.09
				c-0.04,0.02-0.06,0.06-0.1,0.09h-28.99c0,0-0.06-0.06-0.1-0.09c-0.44-0.15-0.95-0.09-1.37,0.09H182.8
				c-0.76,0-1.55-0.76-1.55-1.52c0-1,0.76-1.52,1.55-1.52h64.59c0.76,0,1.55,0.5,1.55,1.52C248.94,79.32,248.18,80.09,247.4,80.09z
				 M205.86,41.15v1.56c0,0.76,0.76,1.52,1.55,1.52h15.42c0.76,0,1.55-0.76,1.55-1.52v-1.56h21.49v32.88h-61.48V41.15H205.86z
				 M221.27,38.16v1.39c0,0-0.02,0.06-0.02,0.11c0,0.04,0,0.06,0.02,0.09v1.45h-12.33v-1.45c0,0,0.02-0.06,0.02-0.09
				c0-0.04,0-0.07-0.02-0.11v-1.39H221.27z M248.91,74.29V39.66c0-1-0.76-1.51-1.55-1.51h-23.01v-1.52c0-1-0.76-1.52-1.55-1.52
				h-7.79v-4.39c0-0.98-0.74-1.49-1.47-1.49c-0.73,0-1.47,0.5-1.47,1.49v4.4h-4.68c-0.76,0-1.55,0.5-1.55,1.52v1.52h-23.01
				c-0.76,0-1.55,0.5-1.55,1.51v34.6c-1.81,0.61-3.11,2.29-3.11,4.27c0,2.53,2.04,4.55,4.62,4.55h14.45
				c-1.16,2.29-3.47,6.76-8,15.61c-0.52,0.74-0.25,1.75,0.52,1.99c0.25,0,0.52,0.24,0.76,0.24c0.52,0,1.03-0.5,1.28-1
				c0,0,0.02-0.06,8.64-16.86h11.64v16.35c0,0.74,0.74,1.49,1.47,1.49c0.73,0,1.47-0.74,1.47-1.49V83.1h14.75
				c0.86,1.69,3.05,5.97,8.64,16.86c0.25,0.5,0.76,1,1.28,1c0.25,0,0.52-0.24,0.76-0.24c0.76-0.24,1.03-1.25,0.52-1.99
				c0,0-0.02-0.04-8-15.61h14.45c2.56,0,4.62-2.03,4.62-4.55c0-2.01-1.3-3.68-3.11-4.27H248.91z"/>
		</defs>
		<clipPath id="SVGID_00000103965891683856172080000008752465140383209905_">
			<use xlink:href="#SVGID_00000015347106412187829970000016904230185431096745_"  style="overflow:visible;"/>
		</clipPath>
		<g style="clip-path:url(#SVGID_00000103965891683856172080000008752465140383209905_);">
			<defs>
				<rect id="SVGID_00000099623893025829903410000000932645021529408393_" x="-518.71" y="-573.6" width="1280" height="1071"/>
			</defs>
			<clipPath id="SVGID_00000039092914465614508590000006117638888264312975_">
				<use xlink:href="#SVGID_00000099623893025829903410000000932645021529408393_"  style="overflow:visible;"/>
			</clipPath>
		</g>
	</g>
	<g>
		<defs>
			<path id="SVGID_00000144303602800638484670000007263661028635964297_" d="M215.12,60.4c-0.68,0-1.14-0.44-1.14-1.11
				s0.46-1.11,1.14-1.11c0.68,0,1.14,0.44,1.14,1.11S215.8,60.4,215.12,60.4z M215.12,55.97c-1.94,0-3.42,1.44-3.42,3.33
				c0,1.88,1.48,3.33,3.42,3.33c1.94,0,3.42-1.44,3.42-3.33C218.54,57.41,217.06,55.97,215.12,55.97z M215.12,64.84
				c-3.19,0-5.69-2.44-5.69-5.54s2.5-5.54,5.69-5.54c3.19,0,5.69,2.44,5.69,5.54S218.31,64.84,215.12,64.84z M215.12,51.54
				c-4.44,0-7.97,3.44-7.97,7.76s3.53,7.76,7.97,7.76c4.44,0,7.97-3.44,7.97-7.76S219.56,51.54,215.12,51.54z M215.12,69.27
				c-5.69,0-10.25-4.43-10.25-9.98s4.55-9.98,10.25-9.98c5.69,0,10.25,4.43,10.25,9.98S220.81,69.27,215.12,69.27z M215.12,47.1
				c-6.94,0-12.52,5.43-12.52,12.2s5.58,12.2,12.52,12.2s12.52-5.43,12.52-12.2S222.06,47.1,215.12,47.1z"/>
		</defs>
		<clipPath id="SVGID_00000018239555789247303740000014699831481001289349_">
			<use xlink:href="#SVGID_00000144303602800638484670000007263661028635964297_"  style="overflow:visible;"/>
		</clipPath>
		<g style="clip-path:url(#SVGID_00000018239555789247303740000014699831481001289349_);">
			<defs>
				<rect id="SVGID_00000032609093009203166290000002139895291937901984_" x="-518.71" y="-573.6" width="1280" height="1071"/>
			</defs>
			<clipPath id="SVGID_00000034797384168779387010000000310590974869552829_">
				<use xlink:href="#SVGID_00000032609093009203166290000002139895291937901984_"  style="overflow:visible;"/>
			</clipPath>
		</g>
	</g>
</g>
<g>
	<defs>
		<path id="SVGID_00000171693901142926498570000006640897411894266280_" d="M367.62,80.89V67.44h11.03c1.23,0,2.22-0.98,2.22-2.19
			v-4.6h9c0.04,0,0.1,0,0.17,0c0.73,0,2.74-0.14,4.3-1.59c0.83-0.77,1.82-2.18,1.82-4.57v-7.38c4.3-1.06,7.49-4.89,7.49-9.45
			c0-5.38-4.44-9.75-9.9-9.75c-5.46,0-9.9,4.37-9.9,9.75c0,4.69,3.38,8.62,7.87,9.55v7.28c0,0.65-0.14,1.11-0.41,1.37
			c-0.37,0.36-1.08,0.42-1.25,0.41c-0.05,0-0.09-0.01-0.14-0.01h-9.04v-3.5c0-1.21-0.99-2.19-2.22-2.19h-26.49
			c-1.22,0-2.22,0.98-2.22,2.19v4.26h-9.39c-0.54-0.02-2.77,0.01-4.47,1.58c-0.83,0.77-1.82,2.18-1.82,4.57v7.38
			c-4.29,1.07-7.49,4.89-7.49,9.45c0,5.38,4.44,9.75,9.9,9.75c5.46,0,9.9-4.37,9.9-9.75c0-4.69-3.38-8.62-7.87-9.54v-7.28
			c0-0.65,0.14-1.11,0.4-1.37c0.38-0.36,1.08-0.43,1.26-0.41c0.05,0,0.09,0,0.14,0h9.43v3.84c0,1.21,0.99,2.19,2.22,2.19h11.03
			v13.37c-0.05,0.83-0.18,4.94,2.54,7.85c1.44,1.54,3.36,2.43,5.71,2.64c0.96,3.63,4.31,6.32,8.29,6.32h11.94
			c4.73,0,8.58-3.79,8.58-8.45c0-4.66-3.85-8.45-8.58-8.45h-11.94c-3.93,0-7.24,2.62-8.25,6.19c-1.05-0.16-1.86-0.55-2.46-1.19
			c-1.32-1.4-1.45-3.83-1.39-4.63C367.61,81.01,367.62,80.95,367.62,80.89z M388.28,37.67c0-2.96,2.45-5.38,5.46-5.38
			c3.01,0,5.46,2.41,5.46,5.38c0,2.97-2.45,5.38-5.46,5.38C390.73,43.05,388.28,40.64,388.28,37.67z M342.13,80.02
			c0,2.97-2.45,5.38-5.46,5.38c-3.01,0-5.46-2.41-5.46-5.38c0-2.97,2.45-5.38,5.46-5.38C339.68,74.64,342.13,77.06,342.13,80.02z
			 M354.37,63.07h22.05v-8.1h-22.05V63.07z M379.71,85.09h11.94c2.28,0,4.14,1.83,4.14,4.08c0,2.25-1.86,4.08-4.14,4.08h-11.94
			c-2.28,0-4.14-1.83-4.14-4.08C375.57,86.92,377.43,85.09,379.71,85.09z"/>
	</defs>
	<clipPath id="SVGID_00000000183981011643503310000013251051757536173218_">
		<use xlink:href="#SVGID_00000171693901142926498570000006640897411894266280_"  style="overflow:visible;"/>
	</clipPath>
	<g style="clip-path:url(#SVGID_00000000183981011643503310000013251051757536173218_);">
		<defs>
			<rect id="SVGID_00000096025901125705189300000002355008344875234195_" x="-562.78" y="-579.98" width="1280" height="1071"/>
		</defs>
		<clipPath id="SVGID_00000011727041053463717830000017488969684112938151_">
			<use xlink:href="#SVGID_00000096025901125705189300000002355008344875234195_"  style="overflow:visible;"/>
		</clipPath>
	</g>
</g>
<g>
	<defs>
		<path id="SVGID_00000028324998384222834330000009538319992542831753_" d="M537.56,34.41h-22.28H493
			c-7.52,0-13.65,5.94-13.65,13.24v21.61v21.61c0,7.3,6.12,13.24,13.65,13.24h22.28h22.28c7.52,0,13.64-5.94,13.64-13.24V69.25
			V47.64C551.21,40.34,545.09,34.41,537.56,34.41 M546.92,47.64v19.53h-8.03l-4.31-7.24c-0.38-0.64-1.09-1.04-1.86-1.04
			s-1.47,0.4-1.86,1.04l-4.31,7.24h-9.14V57.11c0-0.74-0.41-1.43-1.07-1.8l-5.32-2.98l5.32-2.98c0.66-0.37,1.07-1.06,1.07-1.8v-8.99
			h20.14C542.72,38.56,546.92,42.64,546.92,47.64 M493,38.56h20.13v7.79l-7.46,4.18c-0.66,0.37-1.07,1.06-1.07,1.8
			c0,0.74,0.41,1.43,1.07,1.8l7.46,4.18v8.87h-10.38c-0.77,0-1.47,0.4-1.86,1.04l-3.07,5.16l-3.07-5.16
			c-0.38-0.64-1.09-1.04-1.86-1.04h-9.26V47.64C483.65,42.64,487.84,38.56,493,38.56 M483.65,90.87V71.33h8.03l4.31,7.24
			c0.38,0.64,1.09,1.04,1.86,1.04c0.77,0,1.47-0.4,1.86-1.04l4.31-7.24h9.14v11.1c0,0.74,0.41,1.43,1.07,1.8l3.48,1.95l-3.48,1.95
			c-0.66,0.37-1.07,1.06-1.07,1.8v10.02H493C487.84,99.95,483.65,95.88,483.65,90.87 M537.56,99.95h-20.14v-8.82l5.62-3.15
			c0.66-0.37,1.07-1.06,1.07-1.8c0-0.74-0.41-1.43-1.07-1.8l-5.62-3.15v-9.9h10.38c0.77,0,1.47-0.4,1.86-1.04l3.07-5.16l3.07,5.16
			c0.38,0.64,1.09,1.04,1.86,1.04h9.26v19.53C546.92,95.88,542.72,99.95,537.56,99.95"/>
	</defs>
	<clipPath id="SVGID_00000168819121168486113890000004590745369009142165_">
		<use xlink:href="#SVGID_00000028324998384222834330000009538319992542831753_"  style="overflow:visible;"/>
	</clipPath>
	<g style="clip-path:url(#SVGID_00000168819121168486113890000004590745369009142165_);">
		<defs>
			<rect id="SVGID_00000181781727799500527840000002956834634503246227_" x="-598.86" y="-571.5" width="1280" height="1071"/>
		</defs>
		<clipPath id="SVGID_00000074431992547041435620000010145990949025150126_">
			<use xlink:href="#SVGID_00000181781727799500527840000002956834634503246227_"  style="overflow:visible;"/>
		</clipPath>
	</g>
</g>
</svg>
