<svg width="41" height="41" fill="none" xmlns="http://www.w3.org/2000/svg"><g clip-path="url(#a)" fill="#718096"><path d="M36.302 37.583H33.21a1.282 1.282 0 0 1 0-2.562h3.092a2.138 2.138 0 0 0 2.136-2.136V4.698a2.138 2.138 0 0 0-2.136-2.136H4.698a2.138 2.138 0 0 0-2.136 2.136v28.187c0 1.178.959 2.136 2.136 2.136H7.79a1.282 1.282 0 0 1 0 2.562H4.698A4.702 4.702 0 0 1 0 32.885V4.698A4.702 4.702 0 0 1 4.698 0h31.604A4.702 4.702 0 0 1 41 4.698v28.187a4.702 4.702 0 0 1-4.698 4.698Z"/><path d="M39.719 8.542H1.28a1.282 1.282 0 0 1 0-2.563H39.72a1.282 1.282 0 0 1 0 2.563ZM20.5 41c-.17 0-.34-.034-.5-.103-.399-.169-9.75-4.24-9.75-12.617v-6.864c0-.549.348-1.036.87-1.213l8.968-3.052c.267-.092.557-.092.824 0l8.969 3.052c.52.175.869.662.869 1.213v6.863c0 8.378-9.351 12.45-9.75 12.62-.16.067-.33.1-.5.1Zm-7.688-18.667v5.947c0 5.719 5.903 9.124 7.686 10.02 1.78-.901 7.69-4.323 7.69-10.02v-5.947L20.5 19.717l-7.688 2.616Z"/><path d="M20.073 33.312c-.339 0-.667-.135-.906-.375L15.75 29.52a1.282 1.282 0 0 1 1.813-1.813l2.373 2.373 4.236-5.651a1.28 1.28 0 1 1 2.049 1.538L21.096 32.8a1.274 1.274 0 0 1-.935.509c-.029.003-.058.003-.088.003Z"/></g><defs><clipPath id="a"><path fill="#fff" d="M0 0h41v41H0z"/></clipPath></defs></svg>